<?xml version="1.0" encoding="utf-8"?>
<!-- Generator: Adobe Illustrator 23.0.0, SVG Export Plug-In . SVG Version: 6.00 Build 0)  -->
<svg version="1.1" xmlns="http://www.w3.org/2000/svg" xmlns:xlink="http://www.w3.org/1999/xlink" x="0px" y="0px"
	 viewBox="0 0 500 500" style="enable-background:new 0 0 500 500;" xml:space="preserve">
<style type="text/css">
	.st0{display:none;}
	.st1{display:inline;fill:#FFFFFF;}
	.st2{fill:#DCEDF9;}
	.st3{fill:#0077EB;}
	.st4{fill:#0059D3;}
	.st5{fill:#008EFF;}
	.st6{fill:#FFAA01;}
	.st7{fill:#F88800;}
	.st8{fill:#FDCC50;}
	.st9{fill:#F9AF8B;}
	.st10{fill:#FFFFFF;}
	.st11{fill:#2E3052;}
	.st12{fill:#001030;}
	.st13{fill:#524E84;}
	.st14{fill:#1F2232;}
	.st15{fill:#FC8664;}
	.st16{fill:#FD664D;}
	.st17{fill:#000B29;}
</style>
<g id="BACKGROUND" class="st0">
	<rect class="st1" width="500" height="500"/>
</g>
<g id="OBJECTS">
	<g>
		<g>
			<path class="st2" d="M428.2,427.63c-22.72-17.26-61.58-60.1-10.41-127.35c63.28-83.16-12.5-117.27-85.15-113.71
				c-58.44,2.86-124.22-70.61-189.83-57.48c-87.09,17.43-30.54,92.43-89.59,132.83c-50.36,34.46-28.74,139.45,36.8,165.71H428.2z"/>
		</g>
		<path class="st2" d="M469.21,275.13c-0.35-12.33-11.84-17.11-19.51-8.19c-4.4,5.12-8.59,12.47-9.38,22.29
			c-1.76,21.99,17.48,15.61,24.67,3.84C468.06,288.06,469.39,281.37,469.21,275.13z"/>
		<path class="st2" d="M257.55,124.74c-12.12-2.29-19.25,7.91-12.17,17.3c4.06,5.39,10.34,11.06,19.77,13.93
			c21.1,6.42,18.99-13.74,9.03-23.27C269.93,128.62,263.68,125.9,257.55,124.74z"/>
		<path class="st2" d="M57.21,237.72c4.85-11.34-3.57-20.5-14.28-15.61c-6.14,2.81-13.03,7.72-17.86,16.31
			c-10.81,19.23,9.33,21.5,20.78,13.83C50.75,248.97,54.76,243.45,57.21,237.72z"/>
	</g>
	<g>
		<ellipse class="st2" cx="250.37" cy="430.99" rx="207.76" ry="13.68"/>
	</g>
	<g>
		<g>
			<g>
				<g>
					<path class="st3" d="M452.53,318.78c-12.72,12.72,1.47,13.79-7.86,23.4c-8.51,8.75-21.06,0.23-20.23,21.61
						c0.18,4.68-3.22,8.15-8,9.92c-7.86,2.92-15.54,0.22-20.28-5.16c-0.38-0.43-0.75-0.89-1.09-1.36c-3.59-4.9-4.9-11.55-2.24-18.13
						c2.16-5.34,5.99-10.6,12.76-12.7c15.9-4.92,7.08-25.98,20.52-26.9c16.21-1.12,16.79-7.06,28.3-15.08
						C466.61,285.89,469.77,301.55,452.53,318.78z"/>
				</g>
				<g>
					<g>
						<path class="st4" d="M446.83,311.83c-0.36,0.37-29.85,30.78-50.66,56.73c-0.38-0.43-0.75-0.89-1.09-1.36
							c20.87-25.96,50.18-56.19,50.53-56.55c0.33-0.34,0.87-0.34,1.2-0.02C447.15,310.96,447.15,311.5,446.83,311.83z"/>
					</g>
				</g>
			</g>
			<g>
				<g>
					<path class="st5" d="M455.79,361.23c-19.93,11.73-2.61,17.64-17.32,26.59c-13.41,8.16-26.29-6.49-32.14,20.39
						c-1.28,5.88-6.63,9.1-13.15,9.78c-10.72,1.11-19.42-4.73-23.58-12.95c-0.34-0.66-0.65-1.35-0.92-2.04
						c-2.89-7.26-2.38-15.95,3.05-23.29c4.41-5.96,10.86-11.27,19.98-11.69c21.38-1,17.17-30.06,34.21-26.88
						c20.54,3.83,23.18-3.38,40.08-9.65C483.91,324.83,482.8,345.33,455.79,361.23z"/>
				</g>
				<g>
					<g>
						<path class="st3" d="M450.93,350.75c-0.56,0.34-47.07,28.7-81.33,54.3c-0.34-0.66-0.65-1.35-0.92-2.04
							c34.34-25.6,80.55-53.78,81.12-54.12c0.52-0.31,1.19-0.15,1.5,0.37S451.45,350.43,450.93,350.75z"/>
					</g>
				</g>
			</g>
		</g>
		<g>
			<g>
				<g>
					<path class="st3" d="M67.12,173.52c6.84,16.64-6.67,12.16-1.76,24.62c4.48,11.36,19.35,8.33,10.34,27.74
						c-1.97,4.24-0.17,8.76,3.55,12.24c6.12,5.72,14.26,6.19,20.7,3.06c0.52-0.25,1.03-0.53,1.53-0.83
						c5.2-3.14,8.97-8.77,9.06-15.87c0.07-5.76-1.44-12.09-6.89-16.63c-12.78-10.66,3.48-26.7-8.57-32.73
						c-14.53-7.28-12.77-12.99-20.3-24.82C66.81,137.74,57.86,150.97,67.12,173.52z"/>
				</g>
				<g>
					<g>
						<path class="st4" d="M75.06,169.3c0.19,0.47,15.68,39.9,24.89,71.87c0.52-0.25,1.03-0.53,1.53-0.83
							c-9.25-32-24.65-71.18-24.84-71.66c-0.17-0.44-0.67-0.65-1.1-0.48C75.11,168.37,74.89,168.87,75.06,169.3z"/>
					</g>
				</g>
			</g>
			<g>
				<g>
					<path class="st5" d="M47.65,216.97c14.42,18.08-3.86,17.41,6.68,31.03c9.61,12.41,26.88,3.33,22.73,30.53
						c-0.91,5.95,2.94,10.87,8.79,13.83c9.62,4.87,19.83,2.52,26.65-3.67c0.55-0.5,1.09-1.03,1.59-1.58
						c5.3-5.75,7.93-14.05,5.47-22.85c-1.99-7.14-6.12-14.41-14.48-18.06c-19.61-8.57-5.3-34.21-22.34-37.33
						c-20.55-3.76-20.44-11.44-33.98-23.34C34.4,172.92,28.11,192.47,47.65,216.97z"/>
				</g>
				<g>
					<g>
						<path class="st3" d="M55.94,208.91c0.4,0.52,33.71,43.62,56.56,79.77c0.55-0.5,1.09-1.03,1.59-1.58
							c-22.92-36.18-56.02-79.02-56.42-79.53c-0.37-0.48-1.06-0.56-1.53-0.19C55.66,207.75,55.57,208.44,55.94,208.91z"/>
					</g>
				</g>
			</g>
		</g>
		<g>
			<path class="st5" d="M144.92,201.23c5.81-3.98,20.36,5.83,27.97,17.75l-6.75-18.91c-2.44-2.12-6.72-5.09-13.4-7.46
				c-10.39-3.68-20.81-9.45-14.99-13.44c5.45-3.74,18.61,4.69,26.5,15.59l-8.67-24.28c-1.61-1.24-4.07-2.75-7.57-3.99
				c-6.55-2.32-13.12-5.96-9.45-8.47c3.18-2.18,10.53,2.21,15.55,8.33l-2.81-7.87c-1.28-2.29-3.11-5.55-5.99-8.53
				c-6.67-6.9-11.72-14.67-6.57-15.8c5.15-1.13,13.58,12.4,14.91,24.63l1.45,4.05c-1.12-8.89,2.07-19.65,6.53-20.04
				c4.43-0.38,1.65,6.59-1.95,12.54c-2.74,4.53-3.5,8.12-3.7,9.97l6.83,19.13c-1.74-14.08,3.32-31.07,10.38-31.67
				c7.03-0.6,2.62,10.46-3.09,19.89c-4.32,7.13-5.53,12.8-5.86,15.76l8.19,22.94c-1.45-13.92,3.53-30.81,10.47-30.86
				c5.35-0.04,3.71,7.52-2.68,18.19c-4.35,7.25-5.73,13.76-6.18,17.19l3.86,10.8c-0.65,0.46-1.32,0.7-1.99,0.71l-1.53-4.3
				c-2.17-2.1-6.68-5.66-14.44-8.41C149.52,210.99,139.1,205.22,144.92,201.23z"/>
		</g>
		<g>
			<path class="st5" d="M93.8,361.48c-5.96,3.75-2.74,21,5.17,32.72l-14.67-13.71c-0.97-3.08-2-8.19-1.52-15.26
				c0.75-11-0.4-22.85-6.37-19.1c-5.6,3.52-3.1,18.94,3.77,30.51l-18.84-17.61c-0.5-1.97-0.9-4.82-0.65-8.54
				c0.47-6.93-0.25-14.4-4.02-12.04c-3.27,2.05-2.16,10.54,1.46,17.58l-6.1-5.71c-1.59-2.09-3.86-5.06-5.45-8.89
				c-3.68-8.87-8.8-16.58-11.88-12.31c-3.08,4.28,5.98,17.39,16.67,23.47l3.14,2.94c-7.71-4.56-18.86-5.91-20.98-1.97
				c-2.11,3.91,5.39,4.14,12.28,3.2c5.24-0.72,8.84,0.02,10.62,0.57l14.84,13.87c-12.23-7.19-29.83-9.3-33.19-3.07
				c-3.35,6.21,8.56,6.56,19.48,5.07c8.26-1.13,13.94,0.01,16.8,0.89l17.79,16.63c-12.19-6.86-29.67-9.01-32.48-2.66
				c-2.17,4.9,5.42,6.4,17.75,4.77c8.38-1.1,14.91,0.21,18.23,1.16l8.38,7.83c0.68-0.41,1.16-0.93,1.44-1.54l-3.33-3.12
				c-1.06-2.82-2.54-8.38-1.98-16.59C100.93,369.58,99.77,357.72,93.8,361.48z"/>
		</g>
	</g>
	<g>
		<rect x="76.49" y="206.89" class="st6" width="318.09" height="219.73"/>
		<polygon class="st7" points="394.58,206.9 394.58,220.99 235.54,361.95 76.49,220.99 76.49,206.9 235.53,348.34 		"/>
		<g>
			<polygon class="st7" points="204.89,320.61 85.71,426.62 76.49,426.62 76.49,421.02 198.04,312.91 			"/>
		</g>
		<g>
			<g>
				<polygon class="st7" points="394.59,421.76 394.59,426.62 384.54,426.62 265.35,320.61 272.2,312.91 				"/>
			</g>
		</g>
		<polygon class="st8" points="76.48,206.89 235.53,348.34 394.58,206.89 		"/>
	</g>
	<g>
		<g>
			<g>
				<polygon class="st9" points="306.83,187.1 310.89,195.79 302.31,195.92 299,188.02 				"/>
				<g>
					<g>
						<g>
							<path class="st5" d="M308.18,195.24c0,0,1.76-2.37,3.16-2.27c1.4,0.1,12.2,8.69,15.9,9.39c3.7,0.71,3.36,4.48,1.81,4.48
								c-4.46,0-29.06,0.04-29.06,0.04s-0.74-8.8,0.2-11.43C301.13,192.84,305.29,195.87,308.18,195.24z"/>
						</g>
						<g>
							<g>
								<path class="st10" d="M314.15,201.23c-0.13,0.04-0.28,0.03-0.41-0.05c-0.25-0.14-0.34-0.46-0.19-0.71
									c0.05-0.08,1.18-2.05,2.7-2.81c2.02-1.02,3.6,0.12,3.67,0.17c0.23,0.17,0.28,0.49,0.11,0.72c-0.17,0.23-0.5,0.28-0.73,0.11
									c-0.04-0.03-1.14-0.8-2.58-0.08c-1.24,0.62-2.25,2.38-2.26,2.4C314.39,201.12,314.28,201.2,314.15,201.23z"/>
							</g>
							<g>
								<path class="st10" d="M312.61,199.78c-0.13,0.04-0.28,0.03-0.4-0.05c-0.25-0.14-0.34-0.46-0.19-0.71
									c0.05-0.08,1.18-2.05,2.7-2.81c2.02-1.02,3.6,0.12,3.67,0.17c0.23,0.17,0.28,0.49,0.11,0.72c-0.17,0.23-0.5,0.28-0.73,0.11
									c-0.04-0.03-1.14-0.8-2.58-0.08c-1.24,0.63-2.25,2.38-2.26,2.4C312.84,199.66,312.73,199.74,312.61,199.78z"/>
							</g>
							<g>
								<path class="st10" d="M316.25,202.42c-0.13,0.04-0.28,0.03-0.41-0.05c-0.25-0.14-0.34-0.46-0.19-0.71
									c0.05-0.08,1.18-2.05,2.7-2.81c2.02-1.02,3.6,0.12,3.67,0.17c0.23,0.17,0.28,0.5,0.11,0.72c-0.17,0.23-0.5,0.28-0.72,0.11
									c-0.04-0.03-1.14-0.8-2.58-0.08c-1.24,0.63-2.25,2.38-2.26,2.4C316.48,202.3,316.37,202.38,316.25,202.42z"/>
							</g>
						</g>
					</g>
				</g>
			</g>
			<g>
				<g>
					<g>
						<g>
							<g>
								<path class="st11" d="M309.27,189.93l-3.8,1.24l-2.11,0.13l-3.63,0.21c-4.8-3.8-17.74-15.22-20.27-21.95
									c0,0-16.66,38.73-39.68,38.73c-1.49,0,2.45-19.27,6.21-23.28c0,0,21.23-39.56,34.99-35.36
									C287.13,151.53,293.37,160.5,309.27,189.93z"/>
							</g>
						</g>
					</g>
				</g>
				<g>
					<path class="st12" d="M305.47,191.17l-2.11,0.13c-14.13-10.7-20.67-19.75-23.68-25.56c-0.1-0.2-0.27-0.27-0.39-0.26
						c-0.1,0-0.17,0.06-0.22,0.17c-6.76,15.92-14.88,25.48-20.5,30.7c-6.12,5.68-10.6,7.56-10.79,7.63l-0.26-0.63l-0.26-0.63
						c0.04-0.02,4.49-1.89,10.45-7.43c5.5-5.12,13.46-14.51,20.11-30.17c0.25-0.6,0.79-0.98,1.42-1c0.68-0.03,1.32,0.37,1.65,1
						C283.92,170.96,290.65,180.21,305.47,191.17z"/>
				</g>
				<path class="st13" d="M295.92,188.92c0.6,1.13,1.64,2.73,2.64,3.5c0,0,8.13-0.38,12.09-2.36l-1.77-4.14
					C308.87,185.92,302.39,188.29,295.92,188.92z"/>
			</g>
		</g>
		<g>
			<g>
				<g>
					<path class="st3" d="M306.56,133.4c-11.57,4.71-20.81,7.08-28.68,8.05c0,0-0.01,0-0.02,0c-0.1,0-1.95,0.15-2.66,0.12
						c-2.12-0.07-4.99-0.55-7.9-1.91c-2.07-0.97-5.03-3.47-8.12-6.45c-3.83-3.7-7.87-8.13-10.67-11.3c-2.17-2.46-3.6-4.16-3.6-4.16
						c1.93-2.87,6.2-5.48,9.92-6.88c0,0,7.76,12.92,19.51,19.26c0.64,0.35,1.29,0.67,1.96,0.97c2.68-0.43,9.92-0.76,13.06-0.99
						c8.51-0.61,15.47-2.08,15.47-2.08L306.56,133.4z"/>
				</g>
			</g>
			<g>
				<g>
					<g>
						<path class="st9" d="M304.55,127.61c0,0,1.61-4.07,3.8-5.23c2.19-1.16,8.43-5.25,9.76-4.03c1.33,1.22,1.06,7.1-4.53,12.01
							c-3.56,3.13-7.15,3-7.15,3L304.55,127.61z"/>
					</g>
					<g>
						<g>
							<path class="st12" d="M318.51,122.1l-9.21,8.6c-0.35,0.33-0.97,0.42-1.4,0.21l-5.64-2.73c-0.17-0.09-0.29-0.21-0.34-0.35
								l-0.01-0.05l-0.28-0.94l1.5-0.57l14.48-5.5l0.78-0.3l0.29,1l0.02,0.07c0,0.01,0.01,0.02,0,0.02
								C318.75,121.75,318.68,121.94,318.51,122.1z"/>
						</g>
						<g>
							<path class="st14" d="M317.61,120.78l-14.48,5.5l8.19-7.65c0.34-0.32,0.97-0.42,1.39-0.21L317.61,120.78z"/>
						</g>
						<g>
							<g>
								<path class="st11" d="M307.62,129.95l-5.64-2.73c-0.43-0.21-0.49-0.63-0.15-0.96l9.21-8.6c0.35-0.32,0.97-0.42,1.4-0.21
									l5.64,2.73c0.43,0.21,0.49,0.63,0.15,0.96l-9.21,8.6C308.67,130.06,308.05,130.16,307.62,129.95z"/>
							</g>
						</g>
						<g>
							<path class="st11" d="M308.31,128.41l-4.37-2.11c-0.43-0.21-0.49-0.63-0.15-0.96l7.16-6.69c0.35-0.32,0.97-0.42,1.4-0.21
								l4.37,2.11c0.43,0.21,0.49,0.63,0.15,0.96l-7.16,6.69C309.36,128.52,308.73,128.62,308.31,128.41z"/>
						</g>
						<g>
							<path class="st14" d="M318.72,121.57L318.72,121.57c0-0.01,0-0.01-0.01-0.02L318.72,121.57z"/>
						</g>
					</g>
					<g>
						<path class="st9" d="M308.19,120.33c0,0,1.31,0.2,1.44,1.33c0.13,1.13-1.09,0.68-1.87,0.43c-0.78-0.25-1.49,0-1.6,0.13
							C305.82,122.62,305.88,119.99,308.19,120.33z"/>
					</g>
					<g>
						<path class="st9" d="M314.05,126.45c0,0,2.06-3.38,3.63-5.23c1.05-1.23,1.59,0.55,0.87,1.8
							C317.84,124.26,316.42,126.8,314.05,126.45z"/>
					</g>
				</g>
			</g>
		</g>
		<g>
			<g>
				<g>
					<g>
						<g>
							<path class="st5" d="M218.19,187.41l-4.56-29.4l-0.27-1.74l0.03-1.31l1.02-41.65l11.55-3.91l0.62-0.21l2.59-0.88l2.06-0.69
								l12.2,1.68l1.99,0.27l0.7,0.1l8.73,1.2c0.08,27.61-2.57,33.57,2.53,56.03C259.94,175.38,250.52,205.38,218.19,187.41z"/>
						</g>
					</g>
				</g>
			</g>
			<g>
				<g>
					<path class="st3" d="M224.68,179.89C224.69,179.89,224.69,179.89,224.68,179.89c9.14-2.55,15.8-8.86,19.78-13.7
						c4.31-5.23,6.5-9.94,6.52-9.99c0.11-0.23,0.01-0.5-0.22-0.61c-0.23-0.11-0.5-0.01-0.61,0.22c-0.02,0.05-2.17,4.66-6.41,9.81
						c-3.9,4.73-10.41,10.89-19.31,13.38c-0.24,0.07-0.38,0.32-0.32,0.56C224.19,179.82,224.44,179.96,224.68,179.89z"/>
				</g>
			</g>
			<g>
				<g>
					<path class="st3" d="M235.07,180.38c7.94-2.18,14.61-8.87,14.91-9.18c0.18-0.18,0.17-0.47,0-0.65c-0.18-0.18-0.47-0.17-0.65,0
						c-0.08,0.08-7.93,7.95-16.42,9.37c-0.25,0.04-0.42,0.28-0.38,0.52c0.04,0.25,0.28,0.42,0.52,0.38
						C233.74,180.72,234.41,180.57,235.07,180.38z"/>
				</g>
			</g>
			<g>
				<g>
					<path class="st3" d="M229.45,121.66c7.93-2.2,14.59-8.91,14.89-9.22c0.18-0.18,0.17-0.47-0.01-0.65
						c-0.18-0.18-0.47-0.17-0.65,0.01c-0.08,0.08-7.91,7.97-16.4,9.41c-0.25,0.04-0.42,0.28-0.37,0.53
						c0.04,0.25,0.28,0.42,0.53,0.37C228.12,122,228.79,121.85,229.45,121.66z"/>
				</g>
			</g>
		</g>
		<g>
			<g>
				<polygon class="st9" points="299.05,263.5 302.25,270.61 295.7,273.43 291.89,266.08 				"/>
				<g>
					<g>
						<g>
							<path class="st5" d="M300.82,270.46c0,0,0.67-2.87,1.99-3.34c1.32-0.47,14.65,3.09,18.32,2.26c3.67-0.83,4.1,1.96,4.04,3.5
								c-0.07,1.55-27.26,11.3-27.26,11.3s-4.15-7.55-4.34-10.33C293.39,271.07,298.41,272.18,300.82,270.46z"/>
						</g>
						<g>
							<g>
								<path class="st10" d="M308.68,273.57c-0.1,0.09-0.24,0.14-0.39,0.12c-0.28-0.03-0.49-0.29-0.46-0.57
									c0.01-0.1,0.26-2.35,1.35-3.65c1.45-1.74,3.35-1.33,3.43-1.31c0.28,0.06,0.45,0.34,0.39,0.62
									c-0.06,0.28-0.34,0.45-0.62,0.39c-0.05-0.01-1.37-0.28-2.4,0.96c-0.89,1.07-1.11,3.08-1.12,3.1
									C308.85,273.36,308.78,273.48,308.68,273.57z"/>
							</g>
							<g>
								<path class="st10" d="M306.68,272.85c-0.1,0.09-0.24,0.14-0.39,0.12c-0.28-0.03-0.49-0.29-0.46-0.57
									c0.01-0.1,0.26-2.35,1.35-3.65c1.45-1.75,3.35-1.33,3.43-1.31c0.28,0.06,0.45,0.34,0.39,0.62
									c-0.06,0.28-0.34,0.45-0.62,0.39c-0.05-0.01-1.37-0.28-2.4,0.96c-0.89,1.07-1.11,3.08-1.12,3.1
									C306.85,272.64,306.78,272.76,306.68,272.85z"/>
							</g>
							<g>
								<path class="st10" d="M311.07,273.82c-0.1,0.09-0.24,0.14-0.39,0.12c-0.28-0.03-0.49-0.29-0.46-0.57
									c0.01-0.1,0.26-2.35,1.35-3.66c1.45-1.75,3.35-1.33,3.43-1.31c0.28,0.06,0.45,0.34,0.39,0.62
									c-0.06,0.28-0.34,0.45-0.62,0.39c-0.05-0.01-1.37-0.28-2.4,0.96c-0.89,1.07-1.11,3.08-1.12,3.1
									C311.24,273.61,311.17,273.73,311.07,273.82z"/>
							</g>
						</g>
					</g>
				</g>
			</g>
			<g>
				<g>
					<g>
						<g>
							<g>
								<path class="st11" d="M300.7,264.88c-0.68,0.77-2.78,1.94-5.06,2.96c-0.41,0.19-0.84,0.37-1.26,0.54
									c-0.74,0.31-1.48,0.58-2.17,0.82c0,0-15.54-28.64-21.5-49.41c0,0-52.59-6.49-54.42-24.91c-0.06-0.62-0.07-1.25-0.01-1.89
									c0.16-1.76,0.76-3.61,1.9-5.57c1.2-2.07,19.2-0.05,28.93,2.68c0,0,26.37,10.27,36.11,20.85
									C288.16,216.3,300.7,264.88,300.7,264.88z"/>
							</g>
						</g>
					</g>
					<g>
						<path class="st12" d="M295.64,267.84c-0.41,0.19-0.84,0.37-1.26,0.54c-7.86-13.01-18.77-43.39-21.2-50.68
							c-0.16-0.49-0.59-0.86-1.1-0.96c-25.55-4.8-40.28-11.51-48.13-16.28c-3.46-2.1-5.93-4.02-7.65-5.58
							c-0.06-0.62-0.07-1.25-0.01-1.89c1.67,1.63,4.37,3.89,8.53,6.4c7.75,4.69,22.29,11.27,47.52,16.02c1,0.19,1.82,0.91,2.15,1.87
							C276.91,224.57,287.87,255.09,295.64,267.84z"/>
					</g>
				</g>
				<path class="st13" d="M289.41,266.2l2.48,3.97c0,0,6.18-1.07,10.36-5.29l-1.54-3.54C300.7,261.33,293.19,265.04,289.41,266.2z"
					/>
			</g>
		</g>
		<g>
			<path class="st9" d="M205.7,198.29c0,0,3.58,4.85,3.28,7.36s-3.54,7.24-6.13,7.47c-2.59,0.23,2.98-6.08,1.66-5.88
				c-1.59,0.25-12.32,9.05-14.59,9.05c-2.27,0,2.67-4.09,4.59-5.13c0,0-5.08,2.27-6.26,3.45c-1.18,1.18-2.04-1.35,3.87-4.95
				c0,0-5.42,3.08-5.79,3.13c-1.21,0.16,2.23-3.87,5.2-5.33c0,0-4.34,2.12-4.79,2.13c-0.61,0.01,0.7-1.41,3.92-3.2
				c2.9-1.61,7.65-8.99,7.65-8.99L205.7,198.29z"/>
			<g>
				<path class="st3" d="M214.41,113.32c0,0-12.05,23.14-14.79,47.34l-1.29,36.75c0,0,1.24,2.62,7.38,0.88l5.94-36.75l4.55-16.81
					C216.19,144.73,218.26,124.04,214.41,113.32z"/>
			</g>
		</g>
		<g>
			
				<ellipse transform="matrix(0.2837 -0.9589 0.9589 0.2837 88.2359 290.0907)" class="st11" cx="238.3" cy="85.98" rx="13.31" ry="13.31"/>
			<path class="st11" d="M251.61,85.91c0,0,3.89-0.37,4.04-4.06c0.13-3.14-3.83-1.79-3.09-4.13c0.74-2.34,1.83-4.39-1.17-5.54
				c-2.62-1-2.99,0.85-6.08-2.48c-3.64-3.93-8.18,2.88-11.97,2.43c-5.6-0.65-6.85,2.36-7.84,4.77c-0.99,2.41,0.83,4.54,0.83,4.54
				L251.61,85.91z"/>
			<g>
				<path class="st15" d="M248.56,91.58c0,0,2.57-2.4,3.7,0.16c1.14,2.56-2.24,8.94-5.73,6.62L248.56,91.58z"/>
				<g>
					<path class="st16" d="M247.73,96.41c0.14,0.02,0.28-0.04,0.35-0.18c0.95-1.98,3.27-2.45,3.29-2.45
						c0.18-0.03,0.29-0.2,0.26-0.38c-0.03-0.18-0.2-0.29-0.38-0.26c-0.11,0.02-2.65,0.52-3.75,2.81c-0.08,0.16-0.01,0.36,0.15,0.43
						C247.67,96.4,247.7,96.41,247.73,96.41z"/>
				</g>
				<g>
					<g>
						<path class="st16" d="M250.1,95.75c0.06,0.01,0.12,0,0.18-0.02c0.17-0.07,0.24-0.26,0.17-0.42c-0.01-0.03-0.29-0.68-1.03-1.18
							c-0.15-0.1-0.35-0.06-0.45,0.09c-0.1,0.15-0.06,0.35,0.09,0.45c0.57,0.39,0.79,0.89,0.79,0.89
							C249.9,95.66,249.99,95.73,250.1,95.75z"/>
					</g>
				</g>
			</g>
			<path class="st9" d="M231.26,101.57l-1.19,6.72c0,0,2.24,3.45,4.91,4.16c2.67,0.72,4.88-2.21,4.88-2.21l1.14-6.47L231.26,101.57z
				"/>
			<path class="st15" d="M231.26,101.57l-0.53,2.98c1.46,2.34,4.61,3.42,9.51,3.56l0.77-4.33L231.26,101.57z"/>
			<path class="st9" d="M227.22,83.05c-0.34,2.64-0.67,5.95-0.63,8.65c0.01,0.67,0.04,1.31,0.1,1.89
				c0.54,5.2,2.58,14.33,13.11,12.54c4.65-0.79,7.54-5.3,9.32-10.1c1.21-3.26,1.9-6.64,2.29-9.08c0.39-2.49-0.56-5-2.51-6.6
				c-5.26-4.35-11.65-4.2-15.99-3.36C229.91,77.56,227.61,80.01,227.22,83.05z"/>
			<path class="st11" d="M243.42,91.58c-0.13,0.72,0.14,1.36,0.6,1.45c0.46,0.08,0.93-0.44,1.06-1.15c0.13-0.72-0.14-1.37-0.6-1.45
				C244.02,90.34,243.55,90.86,243.42,91.58z"/>
			<path class="st11" d="M233.74,89.86c-0.13,0.72,0.14,1.36,0.6,1.45c0.46,0.08,0.93-0.44,1.06-1.15c0.13-0.72-0.14-1.37-0.6-1.45
				C234.34,88.63,233.87,89.15,233.74,89.86z"/>
			<path class="st11" d="M247.64,88.21c0,0-3.2-1.97-6.05-1.29l0,1.27c0,0,2.98-0.13,5.6,1.41
				C247.47,89.06,247.76,88.83,247.64,88.21z"/>
			<path class="st11" d="M231.9,85.42c0,0,3.68-0.75,6.13,0.86l-0.44,1.19c0,0-2.75-1.15-5.75-0.6
				C231.76,86.28,231.57,85.97,231.9,85.42z"/>
			<g>
				<g>
					<path class="st15" d="M237.94,95.88c-0.54-0.1-1.04-0.4-1.11-0.45c-0.15-0.1-0.2-0.3-0.1-0.45c0.1-0.15,0.3-0.2,0.45-0.1
						c0.27,0.17,0.93,0.47,1.26,0.35c0.06-0.02,0.16-0.08,0.21-0.27c0.31-1.1,0.67-4.89,0.67-4.93c0.02-0.18,0.17-0.31,0.35-0.29
						c0.18,0.02,0.31,0.17,0.29,0.35c-0.01,0.16-0.36,3.89-0.69,5.04c-0.12,0.43-0.4,0.62-0.6,0.7
						C238.44,95.92,238.18,95.92,237.94,95.88z"/>
				</g>
			</g>
			<path class="st10" d="M241.61,98.54c-0.49,1.27-1.79,3.53-4.71,3.01c-2.93-0.52-3.36-2.87-3.38-4.44L241.61,98.54z"/>
			<g>
				<path class="st15" d="M236.64,103.23c-0.83-0.15-1.45-0.69-1.48-0.71c-0.13-0.12-0.15-0.32-0.03-0.46
					c0.12-0.13,0.32-0.15,0.46-0.03c0,0,0.52,0.45,1.17,0.56c0.59,0.1,1.22-0.13,1.22-0.14c0.17-0.07,0.35,0.01,0.42,0.18
					c0.07,0.17-0.01,0.35-0.18,0.42C238.19,103.07,237.42,103.37,236.64,103.23z"/>
			</g>
			<path class="st11" d="M248.51,93.77c0.47-1.27,1.01-2.93,0.99-3.83c-0.04-1.6-1.16-2.73-0.47-4.14c0.69-1.42-0.6-3.29-1.71-3.76
				c-1.11-0.47-3.92-0.37-6.35-2.11c-2.33-1.66-6.9-1.57-7.91-0.07c-1.22,1.82-0.07,2.22-2.82,3.93c-1.1,0.68-0.36,3.09-0.46,4.56
				c-0.04,0.67-0.09,1-0.24,1.7l-0.07,0.36l-2.85-0.5c0.08-2.28,0.34-4.78,0.6-6.85c0.39-3.04,2.69-5.49,5.7-6.07
				c4.34-0.84,10.73-0.99,15.99,3.36c1.94,1.61,2.9,4.11,2.5,6.6c-0.3,1.93-0.8,4.47-1.6,7.06L248.51,93.77z"/>
			<g>
				<path class="st9" d="M227.66,91.35c0.14-0.74,0.22-1.5,0.22-2.25c0-1.03-0.13-1.99-1.08-2.59c-0.77-0.48-1.65-0.64-2.44,0.17
					c-1.95,2.02-1.49,9.44,2.58,8.46L227.66,91.35z"/>
				<g>
					<g>
						<path class="st15" d="M226.58,92.94c-0.13-0.05-0.22-0.19-0.2-0.33c0.22-2.19-1.52-3.79-1.54-3.81
							c-0.13-0.12-0.14-0.33-0.02-0.46c0.12-0.13,0.32-0.14,0.46-0.02c0.08,0.07,1.99,1.83,1.75,4.35
							c-0.02,0.18-0.18,0.31-0.35,0.29C226.64,92.96,226.61,92.95,226.58,92.94z"/>
					</g>
				</g>
				<g>
					<path class="st15" d="M224.91,91.14c-0.06-0.02-0.11-0.06-0.14-0.11c-0.11-0.15-0.07-0.35,0.07-0.45
						c0.02-0.02,0.6-0.43,1.49-0.47c0.18-0.01,0.33,0.13,0.34,0.31c0.01,0.18-0.13,0.33-0.31,0.34c-0.69,0.03-1.14,0.35-1.14,0.35
						C225.12,91.16,225.01,91.18,224.91,91.14z"/>
				</g>
			</g>
		</g>
	</g>
	<g>
		<g>
			<path class="st9" d="M377.92,245.06c0,0-4.38,8.31-9.54,14.89c-1.52,1.94-3.11,3.73-4.68,5.12c-2.54,2.24-5.01,3.42-7.02,2.42
				c-7.47-3.69-24.13-33.06-24.13-33.06l4.1-4.77c0,0,7.41,8.39,12.83,13.41c5,4.63,8.84,8.09,8.84,8.09
				c0.69-1.03,1.43-2.16,2.2-3.36c0.82-1.27,1.66-2.62,2.52-4c6.24-10.04,13.76-21.03,13.76-21.03L377.92,245.06z"/>
			<path class="st9" d="M337.74,232.55c0,0,1.69-2.78,1.04-5.26c-0.65-2.49-1.29-8.11-4.01-7.95c-0.99,0.06,0.46,2.4-0.21,4.58
				c0,0-2.91-1.4-4.86-2.84c-1.71-1.27-5.26-3.32-6.91-4.26c-0.45-0.26-0.97,0.24-0.71,0.68c0.42,0.72,1.46,1.79,3.85,3.28
				c0,0-5.94-3.33-6.94-2.6c-1,0.73,6.51,4.76,6.51,4.76s-6.06-2.45-6.56-1.55c-0.3,0.55,5.64,4.04,5.64,4.04s-5.9-1.82-4.81-0.44
				c0.32,0.4,11.53,5.48,13.87,11.37C333.66,236.35,336.92,234.56,337.74,232.55z"/>
			<path class="st15" d="M368.38,259.95c-1.52,1.94-3.11,3.73-4.68,5.12l-3.18-17.27c0.82-1.27,1.66-2.62,2.52-4L368.38,259.95z"/>
			<g>
				<path class="st5" d="M377.04,222l-15.79,22.77l5.03,20.29l12.39-19.77C378.66,245.3,380.98,232.08,377.04,222z"/>
			</g>
		</g>
		<g>
			<polygon class="st9" points="385.14,416.87 385.14,424.06 391.85,423.96 392.29,416.34 			"/>
			<g>
				<path class="st11" d="M402.18,311.82c-0.05,0.85-0.28,4.96-0.63,10.68c-0.95,15.72-2.72,43.65-3.75,49.92
					c-1.07,6.44-0.58,27.55-0.24,38.6c0.06,1.88-0.68,3.59-1.9,4.84c-0.45,0.46-0.98,0.86-1.56,1.19c-1,0.55-2.15,0.87-3.37,0.87
					h-5.12c-3.86,0-6.95-3.12-6.83-6.9c0.29-9.34,0.64-26.39-0.03-39.55c-0.64-12.53,0.29-34.7,1-48.52h0.01
					c0.29-5.52,0.54-9.7,0.64-11.4L402.18,311.82z"/>
			</g>
			<path class="st12" d="M380.4,311.54l21.78,0.28c-0.05,0.85-0.28,4.96-0.63,10.68c-7.4,0.89-15.1,1.26-21.79,0.44
				C380.05,317.43,380.3,313.25,380.4,311.54z"/>
			<g>
				<path class="st12" d="M395.57,391.31c0.19,7.07,0.39,14.37,0.26,20.26c-0.04,1.65-0.1,3.07-0.17,4.28
					c-0.45,0.47-0.98,0.87-1.56,1.19c0.12-1.41,0.22-3.21,0.27-5.5c0.13-5.86-0.07-13.14-0.26-20.19
					c-0.23-8.61-0.45-16.75,0.02-20.22c1.05-7.58,3.38-48.68,3.99-59.65l1.47,0.06c-0.61,10.96-2.96,52.15-4.01,59.78
					C395.12,374.67,395.34,382.76,395.57,391.31z"/>
			</g>
			<g>
				<g>
					<g>
						<g>
							<path class="st5" d="M386.86,423.79c0,0-1.39-1.92-2.53-1.86c-1.14,0.06-10.07,6.7-13.08,7.2c-3.02,0.5-2.48,2.68-1.96,3.8
								c0.53,1.12,23.99,0.1,23.99,0.1s0.8-6.82,0.08-8.92C392.64,422,389.2,424.34,386.86,423.79z"/>
						</g>
						<g>
							<g>
								<path class="st10" d="M381.9,428.46c0.11,0.03,0.22,0.03,0.33-0.03c0.2-0.11,0.28-0.36,0.17-0.56
									c-0.04-0.07-0.92-1.65-2.14-2.29c-1.63-0.85-2.93,0.03-2.98,0.07c-0.19,0.13-0.23,0.39-0.1,0.58
									c0.13,0.19,0.4,0.23,0.59,0.1c0.04-0.02,0.94-0.62,2.1-0.02c1,0.52,1.79,1.94,1.8,1.95
									C381.72,428.36,381.8,428.43,381.9,428.46z"/>
							</g>
							<g>
								<path class="st10" d="M383.18,427.32c0.11,0.03,0.22,0.03,0.33-0.03c0.2-0.11,0.28-0.36,0.17-0.56
									c-0.04-0.07-0.92-1.65-2.14-2.29c-1.63-0.85-2.93,0.03-2.98,0.07c-0.19,0.13-0.23,0.39-0.1,0.58
									c0.13,0.19,0.4,0.23,0.59,0.1c0.04-0.02,0.94-0.62,2.1-0.02c1,0.52,1.79,1.94,1.8,1.95
									C383,427.22,383.09,427.29,383.18,427.32z"/>
							</g>
							<g>
								<path class="st10" d="M380.18,429.36c0.11,0.03,0.22,0.03,0.33-0.03c0.2-0.11,0.28-0.36,0.17-0.56
									c-0.04-0.07-0.92-1.65-2.14-2.29c-1.63-0.85-2.93,0.03-2.98,0.07c-0.19,0.13-0.23,0.39-0.1,0.58
									c0.13,0.19,0.4,0.23,0.59,0.1c0.04-0.02,0.94-0.62,2.1-0.02c1,0.52,1.79,1.94,1.8,1.95
									C379.99,429.27,380.08,429.33,380.18,429.36z"/>
							</g>
						</g>
					</g>
				</g>
			</g>
		</g>
		<g>
			<polygon class="st9" points="417.83,416.87 418.55,424.05 424.54,423.96 424.98,416.34 			"/>
			<g>
				<path class="st11" d="M430.16,371.47c-0.67,13.17-0.32,30.21-0.03,39.55c0.11,3.78-2.97,6.9-6.83,6.9h-5.12
					c-1.13,0-2.21-0.27-3.14-0.74c-0.57-0.29-1.09-0.65-1.55-1.09c-1.37-1.26-2.21-3.07-2.14-5.07c0.34-11.05,0.82-32.16-0.24-38.6
					c-1.06-6.38-2.87-35.17-3.81-50.72c-0.31-5.19-0.52-8.91-0.57-9.82l21.82,0.28c0.06,1.11,0.17,2.81,0.29,4.98
					C429.54,329.57,430.9,356.97,430.16,371.47z"/>
			</g>
			<path class="st12" d="M428.83,317.14c-4.11,1.1-12.25,3.11-21.53,4.57c-0.31-5.19-0.52-8.91-0.57-9.82l21.82,0.28
				C428.61,313.27,428.71,314.97,428.83,317.14z"/>
			<g>
				<path class="st12" d="M414.77,411.54c0.05,2.37,0.15,4.2,0.28,5.63c-0.57-0.29-1.09-0.65-1.55-1.08
					c-0.09-1.26-0.15-2.75-0.19-4.51c-0.13-5.89,0.07-13.2,0.26-20.26c0.23-8.56,0.45-16.64-0.01-19.99
					c-1.05-7.63-3.4-48.84-4.01-59.79l1.46-0.06c0.61,10.96,2.95,52.08,4,59.66c0.48,3.46,0.26,11.6,0.02,20.22
					C414.84,398.4,414.64,405.69,414.77,411.54z"/>
			</g>
			<g>
				<g>
					<path class="st5" d="M420.89,422.95c0,0,3.05-0.8,3.9-0.78c0.84,0.02,6.5,6.21,8.41,6.58c3.45,0.66,3.46,5.95,1.36,6.21
						c-6.08,0.76-16.48-1.76-16.48-1.76s-0.96-6.78-0.54-8.91C417.94,422.16,419.19,423.57,420.89,422.95z"/>
				</g>
				<g>
					<g>
						<path class="st10" d="M425.92,428.74c-0.11,0.02-0.23,0.01-0.33-0.06c-0.19-0.13-0.24-0.38-0.11-0.57
							c0.04-0.06,1.08-1.56,2.35-2.07c1.7-0.69,2.91,0.31,2.96,0.35c0.18,0.15,0.2,0.41,0.04,0.58c-0.15,0.17-0.42,0.19-0.59,0.04
							c-0.03-0.03-0.88-0.7-2.09-0.21c-1.04,0.42-1.97,1.76-1.98,1.77C426.12,428.65,426.02,428.71,425.92,428.74z"/>
					</g>
					<g>
						<path class="st10" d="M424.76,427.49c-0.11,0.02-0.23,0.01-0.33-0.06c-0.19-0.13-0.24-0.38-0.11-0.57
							c0.04-0.06,1.08-1.56,2.35-2.07c1.7-0.69,2.91,0.31,2.96,0.35c0.18,0.15,0.2,0.41,0.04,0.58c-0.15,0.17-0.42,0.19-0.59,0.04
							c-0.03-0.03-0.88-0.7-2.09-0.21c-1.05,0.43-1.97,1.76-1.98,1.77C424.95,427.41,424.86,427.46,424.76,427.49z"/>
					</g>
					<g>
						<path class="st10" d="M427.55,429.8c-0.11,0.02-0.23,0.01-0.33-0.06c-0.19-0.13-0.24-0.38-0.11-0.57
							c0.04-0.06,1.08-1.56,2.35-2.07c1.7-0.69,2.91,0.31,2.96,0.35c0.18,0.15,0.2,0.41,0.04,0.58c-0.15,0.17-0.42,0.19-0.59,0.04
							c-0.03-0.03-0.88-0.7-2.09-0.21c-1.05,0.43-1.97,1.76-1.98,1.77C427.74,429.72,427.65,429.78,427.55,429.8z"/>
					</g>
				</g>
			</g>
		</g>
		<g>
			<g>
				<g>
					<path class="st5" d="M433.5,314.03c-19.7,4.86-39.38,4.87-59.05,0c-0.1-7.2-0.21-35.97,0.36-59.59
						c0.01-0.46,0.02-0.93,0.03-1.39c0-0.23,0.01-0.46,0.02-0.68v-0.04c0.01-0.29,0.01-0.59,0.02-0.88
						c0.42-15.58,1.15-28.3,2.41-29.99c0,0,0,0,0,0c2.93-3.95,17.68-10.26,21.76-13.07c0.34,0.54,2.35,3.51,4.98,3.74
						c2.89,0.25,5.45-3.08,5.45-3.08v-0.63c4.1,2.81,17.45,8.65,20.38,12.59C433.08,225.32,433.63,301.77,433.5,314.03z"/>
				</g>
			</g>
			<g>
				<g>
					<path class="st3" d="M380.82,243.35c-1.69,2.24-4.16,7.32-5.27,9.66c-0.15,0.32-0.28,0.59-0.37,0.8
						c-0.13,0.27-0.2,0.43-0.2,0.44c-0.04,0.08-0.09,0.14-0.16,0.19c0.01-0.46,0.02-0.93,0.03-1.39c0-0.23,0.01-0.46,0.02-0.68
						v-0.04c0.23-0.48,0.5-1.04,0.8-1.66c1.26-2.58,3.06-6.05,4.42-7.86c0.15-0.2,0.44-0.24,0.64-0.09
						C380.93,242.87,380.97,243.15,380.82,243.35z"/>
				</g>
			</g>
			<g>
				<g>
					<path class="st3" d="M418.55,225.97c0,0-0.01,0-0.01,0c-7.83-0.24-13.87-3.44-17.56-6.07c-4-2.85-6.11-5.61-6.2-5.73
						c-0.15-0.2-0.11-0.48,0.09-0.63c0.2-0.15,0.49-0.11,0.64,0.09c0.08,0.11,8.53,10.99,23.06,11.44c0.25,0.01,0.45,0.21,0.44,0.46
						C419,225.78,418.79,225.97,418.55,225.97z"/>
				</g>
			</g>
			<g>
				<g>
					<path class="st3" d="M392.17,299.01c-0.24,0-0.44-0.18-0.46-0.42c-0.02-0.25,0.17-0.46,0.43-0.48
						c12.85-0.83,20.51-7.2,24.67-12.41c4.53-5.66,6.03-11.2,6.05-11.26c0.06-0.24,0.31-0.38,0.56-0.32
						c0.24,0.06,0.39,0.31,0.33,0.54c-0.06,0.23-1.55,5.75-6.19,11.55c-4.28,5.36-12.16,11.93-25.36,12.78
						C392.19,299.01,392.18,299.01,392.17,299.01z"/>
				</g>
			</g>
			<g>
				<g>
					<path class="st3" d="M399.07,291.02c-0.2,0-0.39-0.13-0.44-0.33c-0.07-0.24,0.08-0.48,0.32-0.55
						c11.16-2.96,13.32-12.09,13.34-12.18c0.05-0.24,0.3-0.39,0.54-0.34c0.25,0.05,0.4,0.29,0.35,0.53
						c-0.02,0.1-0.56,2.48-2.56,5.27c-1.84,2.57-5.31,5.96-11.43,7.58C399.15,291.02,399.11,291.02,399.07,291.02z"/>
				</g>
			</g>
		</g>
		<g>
			<path class="st9" d="M447.96,313.24c-0.28,3.91-2.68,6.82-2.69,9.4c-0.01,2.58-3.05,0.89-1.64-4.2c1.4-5.09-0.68-10.01-1.79-9.97
				c-1.11,0.05,0.35,5.74-0.82,7.63c-1.17,1.89-2.05-2.08-3.08-4.53c-1.06-2.55-0.47-7.83,0.5-11.55
				c0.96-3.72-3.77-27.33-3.15-33.98l-1.71-8.63l-1-5.03l-0.19-5.25l9.13-3.54c0.34,1.69,0.7,3.44,1.05,5.19
				c0.15,0.78,0.31,1.55,0.45,2.33c1.22,6.29,2.32,12.49,2.76,16.46c1.23,10.99-0.79,33.41-0.79,33.41S448.22,309.57,447.96,313.24z
				"/>
			<path class="st15" d="M443.01,251.09c-2.06,2.3-5.35,5.24-9.44,6.31l-1-5.03l-0.19-5.25l9.13-3.54c0.34,1.69,0.7,3.44,1.05,5.19
				C442.71,249.54,442.86,250.32,443.01,251.09z"/>
			<g>
				<path class="st5" d="M445.55,246.11c0,0-1.09,1.27-2.99,2.65c-2.3,1.69-5.79,3.57-9.97,3.6c-0.5-14.56-1.25-26.87-2.33-30.48
					C432.18,224.22,441.43,235.69,445.55,246.11z"/>
			</g>
		</g>
		<g>
			<g>
				<path class="st3" d="M426.32,241.89c1.69,2.24,4.16,7.32,5.27,9.66c0.15,0.32,0.28,0.59,0.37,0.8c0.13,0.27,0.2,0.42,0.2,0.44
					c0.08,0.17,0.24,0.27,0.42,0.27h0.01c0-0.23-0.01-0.46-0.02-0.68c0.13,0,0.27,0,0.4,0c-0.06-0.13-0.21-0.45-0.42-0.91
					c-0.27-0.57-0.64-1.35-1.07-2.24c-1.26-2.58-3.06-6.05-4.42-7.86c-0.15-0.2-0.44-0.24-0.64-0.09
					C426.21,241.41,426.17,241.69,426.32,241.89z"/>
			</g>
		</g>
		<g>
			<path class="st11" d="M418.07,185c0,7.89-4.96,13.32-13.01,13.32c-8.05,0-13.66-5.84-13.66-13.73s4.77-13.86,12.82-13.86
				C413.87,170.73,418.07,177.11,418.07,185z"/>
			<g>
				<path class="st15" d="M416.26,188.4c0,0,2.24-2.92,3.9-0.51c1.66,2.42-0.69,9.55-4.76,7.81L416.26,188.4z"/>
				<g>
					<g>
						<g>
							<path class="st16" d="M416.29,193.5c0.15,0,0.29-0.1,0.33-0.25c0.63-2.2,2.96-3.1,2.98-3.11c0.18-0.07,0.27-0.26,0.2-0.43
								c-0.07-0.17-0.27-0.26-0.44-0.2c-0.11,0.04-2.68,1.02-3.4,3.55c-0.05,0.18,0.06,0.37,0.24,0.42
								C416.23,193.49,416.26,193.5,416.29,193.5z"/>
						</g>
					</g>
				</g>
				<g>
					<g>
						<g>
							<path class="st16" d="M418.64,192.39c0.06,0,0.13-0.02,0.19-0.05c0.16-0.1,0.21-0.31,0.1-0.47
								c-0.02-0.03-0.43-0.64-1.29-1.02c-0.17-0.08-0.38,0-0.45,0.17c-0.08,0.17,0,0.37,0.17,0.45c0.67,0.29,0.99,0.77,0.99,0.77
								C418.42,192.33,418.53,192.39,418.64,192.39z"/>
						</g>
					</g>
				</g>
			</g>
			<g>
				<path class="st15" d="M393.21,188.4c0,0-2.24-2.92-3.9-0.51c-1.66,2.42,0.69,9.55,4.76,7.81L393.21,188.4z"/>
				<g>
					<path class="st16" d="M393.18,193.5c-0.15,0-0.29-0.1-0.33-0.25c-0.63-2.2-2.96-3.1-2.98-3.11c-0.18-0.07-0.27-0.26-0.2-0.43
						c0.07-0.17,0.27-0.26,0.44-0.2c0.11,0.04,2.68,1.02,3.4,3.55c0.05,0.18-0.06,0.37-0.24,0.42
						C393.24,193.49,393.21,193.5,393.18,193.5z"/>
				</g>
				<g>
					<g>
						<g>
							<path class="st16" d="M390.83,192.39c-0.06,0-0.13-0.02-0.19-0.05c-0.16-0.1-0.21-0.31-0.1-0.47
								c0.02-0.03,0.43-0.64,1.29-1.02c0.17-0.08,0.38,0,0.45,0.17c0.08,0.17,0,0.37-0.17,0.45c-0.67,0.29-0.99,0.77-0.99,0.77
								C391.05,192.33,390.94,192.39,390.83,192.39z"/>
						</g>
					</g>
				</g>
			</g>
			<path class="st9" d="M399.23,201.75v7.1c0,0,2.16,3.61,5.08,3.86c2.92,0.25,5.51-3.11,5.51-3.11v-7.35L399.23,201.75z"/>
			<path class="st15" d="M399.23,201.75v3.15c1.96,2.13,5.44,2.66,10.59,1.92v-4.57L399.23,201.75z"/>
			<path class="st9" d="M417.46,188.17c-0.11,1.5-0.29,3.09-0.59,4.67c-0.97,5.23-3.16,10.38-7.87,12.03
				c-10.67,3.73-14.49-5.23-16.01-10.46c-0.17-0.58-0.32-1.23-0.45-1.92c-0.24-1.25-0.43-2.64-0.58-4.04
				c-0.17-1.7-0.29-3.42-0.36-4.93c-0.16-3.18,1.79-6.1,4.83-7.25c4.38-1.65,11.03-2.95,17.33,0.55c2.33,1.29,3.79,3.68,3.84,6.3
				C417.61,184.56,417.59,186.29,417.46,188.17z"/>
			<path class="st11" d="M416.13,188.46c-0.36,0.64-2.36,6.69-2.92,7.54c-1.26-2.72-7.35-0.74-7.35-0.74
				c-0.38,0.12-0.78,0.18-1.18,0.18c-0.39,0-0.77-0.06-1.15-0.17l-0.03-0.01c0,0-6.16-1.89-7.37,0.96c-0.56-0.84-2.3-6.78-2.63-7.75
				h-1.56c0.15,1.4,0.34,2.79,0.58,4.04c0.13,0.69,0.28,1.34,0.45,1.92c1.52,5.23,5.34,14.2,16.01,10.46
				c4.71-1.65,6.9-6.8,7.87-12.03c0.3-1.58,0.48-3.17,0.59-4.67L416.13,188.46z M410.39,199.51L410.39,199.51
				C410.39,199.51,410.39,199.51,410.39,199.51c-0.48,0.45-0.96,0.82-1.44,1.07c-2.7,1.43-3,1.22-4.06,1.26
				c-1.09,0.05-2.58-0.26-4.11-1.1c-0.47-0.26-1.18-0.76-1.95-1.46c0,0-1.1-3.67,5.87-2.75
				C411.69,195.36,410.51,198.79,410.39,199.51z"/>
			<path class="st11" d="M409.31,189.32c0,0.76,0.4,1.37,0.89,1.37c0.49,0,0.89-0.61,0.89-1.37s-0.4-1.37-0.89-1.37
				C409.71,187.95,409.31,188.56,409.31,189.32z"/>
			<path class="st11" d="M398.82,189.29c0,0.76,0.4,1.37,0.89,1.37c0.49,0,0.89-0.61,0.89-1.37c0-0.76-0.4-1.37-0.89-1.37
				C399.22,187.92,398.82,188.54,398.82,189.29z"/>
			<path class="st11" d="M413.73,185.45c0,0-3.41-1.32-6.04-0.21l0.26,1.43c0,0,3.85-0.32,5.8,0.45
				C413.93,186.57,413.95,186.01,413.73,185.45z"/>
			<path class="st11" d="M396.77,185.45c0,0,3.41-1.32,6.04-0.21l-0.26,1.43c0,0-3.85-0.32-5.8,0.45
				C396.58,186.57,396.55,186.01,396.77,185.45z"/>
			<g>
				<path class="st15" d="M404.62,194.63c-0.58,0-1.16-0.22-1.25-0.26c-0.18-0.07-0.26-0.27-0.19-0.44
					c0.07-0.17,0.27-0.26,0.45-0.18c0.31,0.12,1.06,0.32,1.38,0.13c0.06-0.04,0.15-0.11,0.17-0.31c0.12-1.18-0.2-5.12-0.21-5.16
					c-0.02-0.19,0.13-0.35,0.31-0.36c0.19-0.02,0.36,0.12,0.37,0.31c0.01,0.16,0.34,4.05,0.21,5.29c-0.05,0.47-0.3,0.71-0.5,0.82
					C405.14,194.59,404.88,194.63,404.62,194.63z"/>
			</g>
			<path class="st10" d="M409.31,197.1c-0.28,1.39-1.22,3.94-4.37,3.94c-3.16,0-4.04-2.33-4.35-3.94H409.31z"/>
			<path class="st11" d="M391.96,188.46h1.56c-0.17-1.53-0.42-4.24,0.87-4.62c4.06-1.22-1.2-4.04,0.63-5.44
				c1.83-1.41,6.4-0.8,9.57-0.9c3.19-0.1,8.33-0.06,9.57,0.23c1.25,0.28,0.56,2.31,0.11,3.89c-0.46,1.57,1.53,3.31,1.87,4.94
				c0.1,0.47,0.08,1.16,0,1.91h1.3c0.15-1.98,0.18-3.83,0.15-5.32c-0.05-2.62-1.51-5.01-3.84-6.3c-6.3-3.5-12.95-2.19-17.33-0.55
				c-3.04,1.14-4.98,4.07-4.83,7.25C391.67,185.04,391.78,186.76,391.96,188.46z"/>
		</g>
	</g>
	<g>
		<g>
			<g>
				<g>
					<path class="st10" d="M163.28,361.16H84.12c1.31-7.94,7.61-13.71,14.95-13.69l24.63,0.07l24.63-0.07
						C155.67,347.45,161.97,353.22,163.28,361.16z"/>
				</g>
				<g>
					<rect x="90.34" y="360.03" class="st10" width="4.31" height="73.81"/>
					<rect x="152.74" y="360.03" class="st10" width="4.31" height="73.81"/>
					<rect x="94.66" y="380.71" class="st2" width="58.08" height="4.16"/>
				</g>
			</g>
			<g>
				<g>
					<path class="st3" d="M104.32,261.8c0,0-13.22,17.63-14.98,33.01c-1.24,10.86,14.98,27.09,14.98,27.09l5.59-2.78l-5.57-12.56
						c-1.98-6.12-4.42-8.54-2.62-14.71l4.03-8.7L104.32,261.8z"/>
				</g>
				<g>
					<path class="st3" d="M145.98,261.54c0,0,13.05,18.8,14.13,34.24c0.93,13.31-15.04,26.12-15.04,26.12l-4.61-2.3l6.39-12.69
						c1.98-6.12,2.92-9.81,0.22-16.46l-3.43-7.3L145.98,261.54z"/>
				</g>
				<g>
					<g>
						<path class="st5" d="M107.01,301.96l-8.76,27.88c0,0,37.94,4.84,49.55,1.71l-5.89-30.36l4.08-39.64
							c-5.68-2.39-11.7-3.92-17.85-4.37c-8.97-0.65-14.64,0.83-23.82,4.63L107.01,301.96z"/>
					</g>
					<g>
						<g>
							<path class="st3" d="M116.49,270.21c8.37-0.98,16.16-6.73,16.51-6.99c0.21-0.15,0.25-0.45,0.1-0.65
								c-0.15-0.21-0.45-0.25-0.65-0.1c-0.09,0.07-9.26,6.83-18.07,6.95c-0.26,0-0.46,0.22-0.46,0.47c0,0.26,0.22,0.46,0.47,0.46
								C115.09,270.34,115.8,270.29,116.49,270.21z"/>
						</g>
					</g>
				</g>
				<g>
					<polygon class="st9" points="123.24,419.58 123.92,425.73 130.47,425.88 131.02,420.77 					"/>
					<g>
						<path class="st12" d="M122.21,321.98c0,0-16.95-0.93-22.7,3.77c-5.74,4.7-4.59,18.18,1.26,21.86
							c5.85,3.68,15.82,10.91,15.82,10.91l6.34,63.06l8.38,0.28c0,0,7.72-63.35,3.81-75.61
							C131.22,333.99,122.21,321.98,122.21,321.98z"/>
						<path class="st11" d="M132.1,418.74c0.46,1.47,0.24,2.9-0.22,4.32l-9.64-0.21c-0.34-1.4-0.39-2.82-0.19-4.23L132.1,418.74z"/>
					</g>
				</g>
				<g>
					<path class="st10" d="M146.2,321.5h-44.49l-4.11-24.04c-0.36-2.08,1.25-3.98,3.36-3.98h45.99c2.11,0,3.72,1.9,3.36,3.98
						L146.2,321.5z"/>
					<g>
						<path class="st2" d="M142.63,326.73h-37.29c-2,0-3.62-1.62-3.62-3.62v-1.61h44.53v1.61
							C146.25,325.11,144.63,326.73,142.63,326.73z"/>
					</g>
					<g>
						<path class="st2" d="M127.92,308.48c0,2.13-1.73,3.86-3.86,3.86c-2.13,0-3.86-1.73-3.86-3.86c0-2.13,1.73-3.86,3.86-3.86
							C126.19,304.62,127.92,306.35,127.92,308.48z"/>
					</g>
				</g>
				<g>
					<polygon class="st9" points="95.43,402.26 93.98,408.35 99.86,409.51 102.25,404.08 					"/>
					<g>
						<path class="st11" d="M130.83,320.93c0,0-11.35-3.92-18.01,4.31c-6.66,8.22-17.8,77.63-17.8,77.63l7.64,3.15l24.56-61.64
							c0,0,20,11.41,22.43-4.81C151.56,326.73,130.83,320.93,130.83,320.93z"/>
						<path class="st13" d="M104.39,402.84c-0.03,1.59-0.7,2.92-1.61,4.17l-9.39-3.32c0.12-1.49,0.52-2.89,1.18-4.21L104.39,402.84z
							"/>
					</g>
				</g>
				<g>
					<g>
						<path class="st5" d="M98.46,407.35c0,0-3.56-1.81-4.61-2.01c-1.05-0.21-9.7,5.94-12.16,5.88c-4.45-0.11-5.87,6.42-3.34,7.31
							c7.31,2.57,20.84,2.25,20.84,2.25s3-8.12,3.06-10.87C102.31,407.17,100.39,408.58,98.46,407.35z"/>
					</g>
					<g>
						<g>
							<path class="st10" d="M90.69,413.15c0.13,0.06,0.28,0.07,0.42,0.01c0.27-0.11,0.4-0.41,0.3-0.68
								c-0.04-0.09-0.91-2.21-2.35-3.2c-1.92-1.31-3.68-0.4-3.75-0.36c-0.26,0.14-0.35,0.45-0.21,0.71
								c0.14,0.25,0.46,0.35,0.72,0.21c0.05-0.02,1.27-0.63,2.64,0.3c1.17,0.8,1.96,2.7,1.97,2.72
								C90.47,413,90.57,413.1,90.69,413.15z"/>
						</g>
						<g>
							<path class="st10" d="M92.46,411.92c0.13,0.06,0.28,0.07,0.42,0.01c0.27-0.11,0.41-0.41,0.3-0.68
								c-0.04-0.09-0.91-2.21-2.35-3.2c-1.92-1.31-3.68-0.4-3.76-0.36c-0.26,0.14-0.35,0.45-0.21,0.71
								c0.14,0.25,0.47,0.35,0.72,0.21c0.05-0.02,1.27-0.63,2.64,0.3c1.18,0.81,1.96,2.7,1.97,2.72
								C92.24,411.77,92.34,411.87,92.46,411.92z"/>
						</g>
						<g>
							<path class="st10" d="M88.39,414.03c0.13,0.06,0.28,0.07,0.42,0.01c0.27-0.11,0.41-0.41,0.3-0.68
								c-0.04-0.09-0.91-2.21-2.35-3.2c-1.92-1.31-3.68-0.4-3.76-0.36c-0.26,0.14-0.35,0.45-0.21,0.71
								c0.14,0.25,0.47,0.35,0.72,0.21c0.05-0.02,1.27-0.63,2.64,0.3c1.18,0.81,1.96,2.7,1.97,2.72
								C88.17,413.88,88.27,413.98,88.39,414.03z"/>
						</g>
					</g>
				</g>
				<g>
					<g>
						<path class="st5" d="M126.45,425.47c0,0,3.64-1.11,4.66-1.13c1.02-0.02,8.13,7.19,10.44,7.54c4.2,0.64,4.45,7.01,1.93,7.42
							c-7.29,1.2-19.95-1.34-19.95-1.34s-1.47-8.13-1.07-10.71C122.86,424.66,124.43,426.31,126.45,425.47z"/>
					</g>
					<g>
						<g>
							<path class="st10" d="M132.79,432.21c-0.13,0.03-0.27,0.02-0.4-0.06c-0.24-0.14-0.31-0.45-0.17-0.68
								c0.05-0.08,1.22-1.93,2.74-2.61c2.02-0.92,3.52,0.23,3.59,0.28c0.22,0.17,0.25,0.48,0.08,0.7c-0.17,0.22-0.49,0.25-0.71,0.08
								c-0.04-0.03-1.09-0.81-2.53-0.16c-1.24,0.56-2.29,2.21-2.3,2.23C133.02,432.11,132.91,432.18,132.79,432.21z"/>
						</g>
						<g>
							<path class="st10" d="M131.33,430.76c-0.13,0.03-0.27,0.02-0.4-0.06c-0.24-0.14-0.31-0.45-0.17-0.68
								c0.05-0.08,1.22-1.93,2.74-2.61c2.02-0.92,3.52,0.23,3.59,0.28c0.22,0.17,0.25,0.48,0.08,0.7c-0.17,0.22-0.49,0.25-0.71,0.08
								c-0.04-0.03-1.09-0.81-2.53-0.16c-1.24,0.56-2.29,2.21-2.3,2.23C131.56,430.66,131.45,430.73,131.33,430.76z"/>
						</g>
						<g>
							<path class="st10" d="M134.8,433.42c-0.13,0.03-0.27,0.02-0.4-0.06c-0.24-0.14-0.31-0.45-0.17-0.69
								c0.05-0.08,1.22-1.93,2.74-2.61c2.02-0.92,3.52,0.23,3.59,0.28c0.22,0.17,0.25,0.48,0.08,0.7c-0.17,0.21-0.49,0.25-0.71,0.08
								c-0.04-0.03-1.09-0.81-2.53-0.16c-1.24,0.56-2.29,2.21-2.3,2.23C135.03,433.31,134.92,433.39,134.8,433.42z"/>
						</g>
					</g>
				</g>
				<g>
					<path class="st11" d="M136.35,222.04c0,0,5.4,8.36,4.8,17.06c-0.59,8.7,0.8,18.75-6.99,18.31c-7.79-0.44-21.68,3.12-26.1-3.66
						C103.64,246.98,136.35,222.04,136.35,222.04z"/>
					<path class="st17" d="M138.35,237.41c0,0,1.4,12.62-4.59,16.09c-5.99,3.47-10.32-0.4-10.32-0.4S136.06,235.51,138.35,237.41z"
						/>
					<g>
						<g>
							<path class="st15" d="M113.48,237.35c0,0-2.15-2.87-3.75-0.5c-1.6,2.37,0.66,9.37,4.58,7.66L113.48,237.35z"/>
							<g>
								<path class="st16" d="M113.45,242.35c-0.14,0-0.28-0.1-0.32-0.24c-0.61-2.16-2.85-3.04-2.87-3.05
									c-0.17-0.07-0.26-0.26-0.19-0.43c0.06-0.17,0.26-0.26,0.43-0.19c0.1,0.04,2.57,1,3.27,3.49c0.05,0.18-0.05,0.36-0.23,0.41
									C113.51,242.35,113.48,242.35,113.45,242.35z"/>
							</g>
							<g>
								<path class="st16" d="M111.19,241.26c-0.06,0-0.12-0.02-0.18-0.05c-0.15-0.1-0.2-0.3-0.1-0.46c0.02-0.03,0.41-0.63,1.24-1
									c0.17-0.07,0.36,0,0.44,0.17c0.07,0.17,0,0.36-0.17,0.44c-0.64,0.29-0.95,0.75-0.96,0.76
									C111.4,241.21,111.3,241.26,111.19,241.26z"/>
							</g>
						</g>
						<g>
							<path class="st15" d="M135.63,237.35c0,0,2.15-2.87,3.75-0.5c1.6,2.37-0.66,9.37-4.58,7.66L135.63,237.35z"/>
							<g>
								<path class="st16" d="M135.66,242.35c0.14,0,0.28-0.1,0.32-0.24c0.61-2.16,2.85-3.04,2.87-3.05
									c0.17-0.07,0.26-0.26,0.19-0.43c-0.06-0.17-0.26-0.26-0.43-0.19c-0.1,0.04-2.57,1-3.27,3.49c-0.05,0.18,0.05,0.36,0.23,0.41
									C135.6,242.35,135.63,242.35,135.66,242.35z"/>
							</g>
							<g>
								<path class="st16" d="M137.92,241.26c0.06,0,0.12-0.02,0.18-0.05c0.15-0.1,0.2-0.3,0.1-0.46c-0.02-0.03-0.41-0.63-1.24-1
									c-0.17-0.07-0.36,0-0.44,0.17c-0.07,0.17,0,0.36,0.17,0.44c0.64,0.29,0.95,0.75,0.96,0.76
									C137.7,241.21,137.81,241.26,137.92,241.26z"/>
							</g>
						</g>
						<path class="st9" d="M129.85,250.45v6.96c0,0-2.08,3.55-4.88,3.79c-2.8,0.24-5.3-3.05-5.3-3.05v-7.21L129.85,250.45z"/>
						<path class="st15" d="M129.85,250.45v3.09c-1.88,2.09-5.23,2.83-10.18,2.1l0-4.7L129.85,250.45z"/>
						<path class="st9" d="M137.19,232.57c-0.13,2.71-0.39,6.09-0.9,8.79c-0.13,0.67-0.27,1.31-0.44,1.88
							c-1.47,5.13-5.13,13.93-15.39,10.26c-4.53-1.62-6.63-6.66-7.57-11.8c-0.64-3.49-0.73-7.01-0.68-9.53
							c0.05-2.57,1.45-4.92,3.69-6.19c6.06-3.43,12.45-2.15,16.65-0.54C135.47,226.58,137.33,229.45,137.19,232.57z"/>
						<path class="st11" d="M120.04,238.42c0,0.74-0.38,1.35-0.86,1.35c-0.47,0-0.86-0.6-0.86-1.35c0-0.74,0.38-1.35,0.86-1.35
							C119.65,237.08,120.04,237.68,120.04,238.42z"/>
						<path class="st11" d="M130.6,238.42c0,0.74-0.38,1.35-0.86,1.35c-0.47,0-0.86-0.6-0.86-1.35c0-0.74,0.38-1.35,0.86-1.35
							C130.22,237.08,130.6,237.68,130.6,238.42z"/>
						<path class="st11" d="M117.48,233.94c0.71-0.2,2.15-0.54,3.66-0.55c0.4,0,0.7,0.35,0.63,0.75l0,0.01
							c-0.06,0.31-0.34,0.53-0.65,0.52c-1.03-0.05-3.73,0.1-5.01,0.61c-0.03-0.22,0.11-0.46,0.29-0.68
							C116.68,234.28,117.07,234.06,117.48,233.94z"/>
						<path class="st11" d="M131.31,233.97c-0.71-0.2-2.15-0.54-3.66-0.55c-0.4,0-0.7,0.35-0.63,0.75l0,0.01
							c0.06,0.31,0.34,0.53,0.65,0.52c1.03-0.05,3.73,0.1,5.01,0.61c0.03-0.22-0.11-0.46-0.29-0.68
							C132.11,234.31,131.72,234.09,131.31,233.97z"/>
						<g>
							<path class="st15" d="M124.67,243.9c-0.25,0-0.51-0.04-0.72-0.17c-0.19-0.12-0.43-0.35-0.48-0.81
								c-0.13-1.22,0.19-5.03,0.2-5.19c0.01-0.18,0.17-0.32,0.36-0.3c0.18,0.01,0.32,0.17,0.3,0.36c0,0.04-0.32,3.91-0.2,5.07
								c0.02,0.2,0.1,0.27,0.16,0.31c0.31,0.19,1.03,0,1.33-0.13c0.17-0.07,0.36,0.01,0.43,0.18c0.07,0.17-0.01,0.36-0.18,0.43
								C125.78,243.68,125.23,243.9,124.67,243.9z"/>
						</g>
						<path class="st10" d="M120.47,245.98c0.25,1.26,1.08,3.57,3.88,3.57c2.81,0,3.59-2.12,3.86-3.57H120.47z"/>
						<g>
							<path class="st15" d="M124.31,251.49c-0.81,0-1.52-0.43-1.55-0.45c-0.16-0.1-0.2-0.3-0.11-0.46c0.1-0.16,0.3-0.2,0.45-0.11
								l0,0c0.01,0,0.59,0.36,1.2,0.36c0.67,0,1.26-0.35,1.27-0.36c0.16-0.09,0.36-0.04,0.45,0.11c0.09,0.16,0.04,0.36-0.11,0.45
								C125.89,251.05,125.16,251.49,124.31,251.49z"/>
						</g>
					</g>
					<path class="st11" d="M138.52,232.03c-0.11,0.3-0.4,0.49-0.8,0.61c0.03,0.73-0.05,1.61-0.12,2.45
						c-0.41,4.78-1.61,5.62-1.89,4.44c-0.18-0.78-0.17-5.29-0.08-6.76c-0.94-0.06-1.75-0.22-1.75-0.22l-1.11-4.64l-0.39,4.58
						c-1.66,0.58-5.54-0.35-5.54-0.35l-1.3-4.57l-0.81,4.4c-2.49,1.22-5.61,0.41-5.61,0.41l-0.72-4.75l-1.65,4.75
						c0,0-5.32,1.91-5.38,0c-0.04-1.11,0.78-4.24,1.47-6.66c0.75-2.64,2.49-4.88,4.83-6.14c6.6-3.54,13.58-1.66,15.98-0.23
						C138.73,222.38,138.52,232.03,138.52,232.03z"/>
					<path class="st11" d="M114.3,222.39c0,0-4.38,5.21-5.82,14.52c-1.44,9.31-3.44,16.18,2.17,19.26c6.07,3.33,5.54-3.5,5.46-5.35
						c-0.09-1.85-5.25-6.92-1.81-21.19C115.41,225.02,114.3,222.39,114.3,222.39z"/>
					<path class="st17" d="M113.28,241.62c0,0,0,0,0,0.01c0,0.07,0.01,0.44,0.03,1.02c0.01,0.36,0.04,0.8,0.07,1.29
						c0.21,3.14,0.82,8.55,2.61,10.43c0.71,0.74,2.07,1.12,3.68,1.27v-2.46c-1.69-0.8-3.01-2.12-4.03-3.75
						c-0.63-1.37-1.72-3.51-2.23-6.88L113.28,241.62z"/>
					<path class="st10" d="M137.26,244.67c0,0.43-0.35,0.78-0.78,0.78c-0.43,0-0.77-0.35-0.77-0.78c0-0.43,0.35-0.77,0.77-0.77
						C136.92,243.9,137.26,244.24,137.26,244.67z"/>
				</g>
			</g>
		</g>
	</g>
	<g>
		<g>
			<g>
				<g>
					<path class="st6" d="M370.75,177.94h-19.01c-1.46,0-2.64-1.18-2.64-2.64v-19.01c0-1.46,1.18-2.64,2.64-2.64h19.01
						c1.46,0,2.64,1.18,2.64,2.64v19.01C373.39,176.75,372.21,177.94,370.75,177.94z"/>
				</g>
			</g>
			<g>
				<path class="st8" d="M369.52,165.79c0,2-0.71,3.84-1.89,5.27c-1.52,1.84-3.81,3-6.38,3c-2.57,0-4.86-1.17-6.38-3
					c-1.18-1.43-1.89-3.27-1.89-5.27c0-4.57,3.7-8.27,8.27-8.27C365.81,157.52,369.52,161.22,369.52,165.79z"/>
				<path class="st10" d="M367.62,171.06c-1.52,1.84-3.81,3-6.38,3c-2.57,0-4.86-1.17-6.38-3l0.11-0.22
					c0.18-0.35,0.43-0.66,0.72-0.91c0.3-0.25,0.65-0.44,1.02-0.56c1.35-0.41,2.6-0.83,3.3-2.03c-0.85-0.4-1.42-1.2-1.66-1.77
					c-0.94,0.2-1.61-1.53-1.11-1.99c0.19-0.17,0.38-0.22,0.55-0.21c0.15-1.76,1.63-3.34,3.43-3.34c1.8,0,3.28,1.57,3.44,3.34
					c0.17-0.01,0.36,0.04,0.55,0.21c0.5,0.46-0.17,2.19-1.11,1.99c-0.2,0.63-0.91,1.39-1.54,1.66c0.7,1.2,1.83,1.73,3.18,2.14
					c0.38,0.12,0.73,0.31,1.02,0.56c0.3,0.25,0.55,0.56,0.72,0.91L367.62,171.06z"/>
			</g>
		</g>
		<g>
			<g>
				<g>
					<path class="st6" d="M55.12,307.11H36.12c-1.46,0-2.64-1.18-2.64-2.64v-19.01c0-1.46,1.18-2.64,2.64-2.64h19.01
						c1.46,0,2.64,1.18,2.64,2.64v19.01C57.77,305.92,56.58,307.11,55.12,307.11z"/>
				</g>
			</g>
			<path class="st10" d="M45.98,286.91c-3.1-0.21-5.68,2.25-5.68,5.3c0,0.99,0.27,1.92,0.74,2.71c0.7,1.19,1.43,2.36,2.1,3.56
				l2.52,4.54l3.84-6.93c0.23-0.4,0.47-0.8,0.7-1.2c0.49-0.82,0.75-1.79,0.73-2.82C50.87,289.36,48.7,287.09,45.98,286.91z
				 M45.62,293.82c-1.24,0-2.24-1-2.24-2.24c0-1.24,1.01-2.24,2.24-2.24c1.24,0,2.24,1,2.24,2.24
				C47.86,292.82,46.86,293.82,45.62,293.82z"/>
		</g>
		<g>
			<g>
				<g>
					<g>
						<path class="st5" d="M454.26,185.94c2.99,0,5.42,2.43,5.42,5.42c0,2.99-2.43,5.42-5.42,5.42c-2.99,0-5.42-2.43-5.42-5.42
							C448.84,188.37,451.27,185.94,454.26,185.94z M454.26,195.08c2.05,0,3.72-1.67,3.72-3.72c0-2.05-1.67-3.72-3.72-3.72
							c-2.05,0-3.72,1.67-3.72,3.72C450.54,193.41,452.21,195.08,454.26,195.08z"/>
					</g>
				</g>
			</g>
			<g>
				<path class="st6" d="M434.74,166.91c2.99,0,5.42,2.43,5.42,5.42c0,2.99-2.43,5.42-5.42,5.42c-2.99,0-5.42-2.43-5.42-5.42
					C429.32,169.35,431.75,166.91,434.74,166.91z M434.74,176.06c2.05,0,3.72-1.67,3.72-3.72c0-2.05-1.67-3.72-3.72-3.72
					c-2.05,0-3.72,1.67-3.72,3.72C431.02,174.39,432.69,176.06,434.74,176.06z"/>
			</g>
			<g>
				<g>
					<g>
						<g>
							<path class="st5" d="M428.04,149.29c0.47,0,0.85,0.38,0.85,0.85v3.75c0,0.47-0.38,0.85-0.85,0.85
								c-0.47,0-0.85-0.38-0.85-0.85v-3.75C427.19,149.67,427.57,149.29,428.04,149.29z"/>
						</g>
					</g>
					<g>
						<g>
							<path class="st5" d="M428.04,142.73c0.47,0,0.85,0.38,0.85,0.85v3.75c0,0.47-0.38,0.85-0.85,0.85
								c-0.47,0-0.85-0.38-0.85-0.85v-3.75C427.19,143.11,427.57,142.73,428.04,142.73z"/>
						</g>
					</g>
				</g>
				<g>
					<g>
						<g>
							<path class="st5" d="M422.78,147.89h3.37c0.47,0,0.85,0.38,0.85,0.85c0,0.47-0.38,0.85-0.85,0.85h-3.37
								c-0.47,0-0.85-0.38-0.85-0.85C421.93,148.27,422.31,147.89,422.78,147.89z"/>
						</g>
					</g>
					<g>
						<g>
							<path class="st5" d="M429.94,147.89h3.37c0.47,0,0.85,0.38,0.85,0.85c0,0.47-0.38,0.85-0.85,0.85h-3.37
								c-0.47,0-0.85-0.38-0.85-0.85C429.09,148.27,429.47,147.89,429.94,147.89z"/>
						</g>
					</g>
				</g>
			</g>
			<g>
				<g>
					<g>
						<g>
							<g>
								<path class="st6" d="M457.99,170.31c0.47,0,0.85,0.38,0.85,0.85v3.75c0,0.47-0.38,0.85-0.85,0.85
									c-0.47,0-0.85-0.38-0.85-0.85v-3.75C457.14,170.69,457.52,170.31,457.99,170.31z"/>
							</g>
						</g>
						<g>
							<g>
								<path class="st6" d="M457.99,163.75c0.47,0,0.85,0.38,0.85,0.85v3.75c0,0.47-0.38,0.85-0.85,0.85
									c-0.47,0-0.85-0.38-0.85-0.85v-3.75C457.14,164.13,457.52,163.75,457.99,163.75z"/>
							</g>
						</g>
					</g>
					<g>
						<g>
							<g>
								<path class="st6" d="M452.72,168.91h3.37c0.47,0,0.85,0.38,0.85,0.85s-0.38,0.85-0.85,0.85h-3.37
									c-0.47,0-0.85-0.38-0.85-0.85S452.25,168.91,452.72,168.91z"/>
							</g>
						</g>
						<g>
							<g>
								<path class="st6" d="M459.88,168.91h3.37c0.47,0,0.85,0.38,0.85,0.85s-0.38,0.85-0.85,0.85h-3.37
									c-0.47,0-0.85-0.38-0.85-0.85S459.41,168.91,459.88,168.91z"/>
							</g>
						</g>
					</g>
				</g>
			</g>
		</g>
		<g>
			<g>
				<g>
					<g>
						<path class="st5" d="M118.45,116.7c2.99,0,5.42,2.43,5.42,5.42c0,2.99-2.43,5.42-5.42,5.42c-2.99,0-5.42-2.43-5.42-5.42
							C113.03,119.13,115.46,116.7,118.45,116.7z M118.45,118.4c-2.05,0-3.72,1.67-3.72,3.72c0,2.05,1.67,3.72,3.72,3.72
							c2.05,0,3.72-1.67,3.72-3.72C122.18,120.07,120.51,118.4,118.45,118.4z"/>
					</g>
				</g>
			</g>
			<g>
				<g>
					<g>
						<g>
							<path class="st6" d="M98.71,98.78c2.99,0,5.42,2.43,5.42,5.42c0,2.99-2.43,5.42-5.42,5.42c-2.99,0-5.42-2.43-5.42-5.42
								C93.28,101.22,95.72,98.78,98.71,98.78z M98.71,100.49c-2.05,0-3.72,1.67-3.72,3.72c0,2.05,1.67,3.72,3.72,3.72
								c2.05,0,3.72-1.67,3.72-3.72C102.43,102.16,100.76,100.49,98.71,100.49z"/>
						</g>
					</g>
				</g>
			</g>
			<g>
				<g>
					<g>
						<g>
							<path class="st5" d="M91.55,129.78c0,0.47,0.38,0.85,0.85,0.85h3.75c0.47,0,0.85-0.38,0.85-0.85c0-0.47-0.38-0.85-0.85-0.85
								H92.4C91.93,128.93,91.55,129.31,91.55,129.78z"/>
						</g>
					</g>
					<g>
						<g>
							<path class="st5" d="M84.99,129.78c0,0.47,0.38,0.85,0.85,0.85h3.75c0.47,0,0.85-0.38,0.85-0.85c0-0.47-0.38-0.85-0.85-0.85
								h-3.75C85.37,128.93,84.99,129.31,84.99,129.78z"/>
						</g>
					</g>
				</g>
				<g>
					<g>
						<g>
							<path class="st5" d="M90.15,124.52v3.37c0,0.47,0.38,0.85,0.85,0.85c0.47,0,0.85-0.38,0.85-0.85v-3.37
								c0-0.47-0.38-0.85-0.85-0.85C90.53,123.66,90.15,124.05,90.15,124.52z"/>
						</g>
					</g>
					<g>
						<g>
							<path class="st5" d="M90.15,131.68v3.37c0,0.47,0.38,0.85,0.85,0.85c0.47,0,0.85-0.38,0.85-0.85v-3.37
								c0-0.47-0.38-0.85-0.85-0.85C90.53,130.83,90.15,131.21,90.15,131.68z"/>
						</g>
					</g>
				</g>
			</g>
			<g>
				<g>
					<g>
						<g>
							<g>
								<path class="st6" d="M131.27,100.49c0,0.47,0.38,0.85,0.85,0.85h3.75c0.47,0,0.85-0.38,0.85-0.85
									c0-0.47-0.38-0.85-0.85-0.85h-3.75C131.65,99.64,131.27,100.02,131.27,100.49z"/>
							</g>
						</g>
						<g>
							<g>
								<g>
									<path class="st6" d="M124.71,100.49c0,0.47,0.38,0.85,0.85,0.85h3.75c0.47,0,0.85-0.38,0.85-0.85
										c0-0.47-0.38-0.85-0.85-0.85h-3.75C125.09,99.64,124.71,100.02,124.71,100.49z"/>
								</g>
							</g>
						</g>
					</g>
					<g>
						<g>
							<g>
								<path class="st6" d="M129.87,95.22v3.37c0,0.47,0.38,0.85,0.85,0.85s0.85-0.38,0.85-0.85v-3.37c0-0.47-0.38-0.85-0.85-0.85
									S129.87,94.75,129.87,95.22z"/>
							</g>
						</g>
						<g>
							<g>
								<path class="st6" d="M129.87,102.38v3.37c0,0.47,0.38,0.85,0.85,0.85s0.85-0.38,0.85-0.85v-3.37c0-0.47-0.38-0.85-0.85-0.85
									S129.87,101.91,129.87,102.38z"/>
							</g>
						</g>
					</g>
				</g>
			</g>
		</g>
		<g>
			<g>
				<g>
					<g>
						<path class="st2" d="M357.38,126.66c0.11,0.03,0.24,0.03,0.36,0c1.29-0.32,2.03-0.45,2.04-0.45c0.39-0.07,0.65-0.42,0.58-0.78
							c-0.07-0.37-0.44-0.61-0.83-0.54c-0.03,0.01-0.8,0.14-2.15,0.47c-0.38,0.09-0.61,0.46-0.51,0.82
							C356.93,126.43,357.14,126.61,357.38,126.66z"/>
					</g>
				</g>
				<g>
					<g>
						<path class="st2" d="M315.71,157.53c-0.67,1.14-1.31,2.33-1.91,3.53c-0.15,0.3-0.5,0.44-0.82,0.37
							c-0.04-0.01-0.09-0.03-0.13-0.04c-0.36-0.16-0.51-0.56-0.34-0.9c0.61-1.22,1.27-2.43,1.95-3.6c0.19-0.33,0.62-0.45,0.97-0.27
							C315.77,156.8,315.9,157.21,315.71,157.53z"/>
					</g>
					<g>
						<path class="st2" d="M312.11,164.69c-0.52,1.21-1.01,2.46-1.46,3.71c-0.12,0.34-0.5,0.52-0.86,0.44
							c-0.02,0-0.04-0.01-0.05-0.01c-0.38-0.12-0.58-0.5-0.45-0.85c0.46-1.28,0.96-2.55,1.49-3.79c0.15-0.35,0.57-0.51,0.93-0.37
							C312.08,163.95,312.25,164.34,312.11,164.69z"/>
					</g>
					<g>
						<path class="st2" d="M306.02,184.41c-0.35-0.08-0.58-0.4-0.53-0.74c0.18-1.34,0.4-2.68,0.64-3.99
							c0.07-0.37,0.44-0.61,0.83-0.55c0.4,0.07,0.65,0.41,0.58,0.78c-0.24,1.28-0.45,2.6-0.63,3.92c-0.05,0.37-0.41,0.63-0.8,0.58
							C306.08,184.43,306.05,184.42,306.02,184.41z"/>
					</g>
					<g>
						<path class="st2" d="M308.9,171.36c0.38,0.1,0.6,0.47,0.5,0.83c-0.18,0.59-0.35,1.19-0.5,1.78c-0.18,0.68-0.36,1.38-0.53,2.07
							c-0.09,0.36-0.47,0.59-0.86,0.51c-0.01,0-0.01,0-0.02,0c-0.38-0.09-0.61-0.44-0.52-0.8c0.17-0.7,0.35-1.41,0.54-2.1
							c0.16-0.6,0.33-1.21,0.51-1.81c0.1-0.35,0.49-0.56,0.87-0.47C308.89,171.35,308.9,171.35,308.9,171.36z"/>
					</g>
					<g>
						<path class="st2" d="M317.85,154.12c-0.17,0.25-0.49,0.36-0.78,0.29c-0.07-0.02-0.14-0.04-0.21-0.08
							c-0.34-0.2-0.43-0.61-0.22-0.93c0.77-1.14,1.58-2.26,2.41-3.35c0.23-0.3,0.68-0.37,1-0.15c0.32,0.22,0.39,0.64,0.16,0.94
							C319.39,151.91,318.59,153.01,317.85,154.12z"/>
					</g>
					<g>
						<path class="st2" d="M353.71,127.81c-1.31,0.42-2.64,0.89-3.95,1.4c-0.15,0.06-0.31,0.06-0.45,0.03
							c-0.21-0.05-0.4-0.19-0.49-0.4c-0.15-0.34,0.02-0.74,0.39-0.88c1.34-0.52,2.69-1,4.03-1.43c0.37-0.12,0.78,0.07,0.91,0.42
							C354.29,127.31,354.09,127.69,353.71,127.81z"/>
					</g>
					<g>
						<path class="st2" d="M342.17,132.66c-0.17,0.09-0.35,0.11-0.53,0.06c-0.18-0.04-0.35-0.16-0.45-0.32
							c-0.19-0.32-0.07-0.74,0.28-0.92c1.25-0.65,2.53-1.28,3.82-1.87c0.36-0.16,0.79-0.02,0.96,0.31c0.17,0.33,0.02,0.74-0.33,0.9
							C344.65,131.4,343.39,132.02,342.17,132.66z"/>
					</g>
					<g>
						<path class="st2" d="M328.56,141.96c-0.19,0.16-0.44,0.22-0.67,0.16c-0.13-0.03-0.25-0.09-0.35-0.19
							c-0.27-0.27-0.26-0.7,0.03-0.95c1.04-0.92,2.13-1.81,3.23-2.67c0.31-0.24,0.76-0.2,1.01,0.09c0.25,0.29,0.21,0.71-0.1,0.95
							C330.65,140.18,329.58,141.06,328.56,141.96z"/>
					</g>
					<g>
						<path class="st2" d="M335.06,136.92c-0.18,0.12-0.4,0.16-0.6,0.11c-0.16-0.04-0.3-0.12-0.4-0.26
							c-0.23-0.3-0.16-0.72,0.16-0.94c1.15-0.79,2.35-1.55,3.56-2.28c0.33-0.2,0.78-0.11,0.99,0.21c0.21,0.31,0.12,0.73-0.22,0.93
							C337.36,135.4,336.19,136.15,335.06,136.92z"/>
					</g>
					<g>
						<path class="st2" d="M322.79,147.72c-0.18,0.21-0.47,0.29-0.73,0.22c-0.1-0.02-0.2-0.07-0.28-0.13
							c-0.31-0.24-0.35-0.66-0.1-0.95c0.91-1.03,1.87-2.05,2.85-3.03c0.27-0.27,0.73-0.28,1.01-0.03c0.29,0.26,0.3,0.68,0.03,0.95
							C324.62,145.71,323.68,146.71,322.79,147.72z"/>
					</g>
				</g>
			</g>
			<g>
				<g>
					<g>
						<polygon class="st5" points="358.1,122.1 356.65,110.88 394.68,116.33 						"/>
					</g>
					<g>
						<polygon class="st3" points="394.68,116.33 359.54,124.96 359.45,124.99 357.69,127.01 358.1,122.1 						"/>
					</g>
					<g>
						<polygon class="st4" points="357.69,127.01 360.84,126.97 359.45,124.99 						"/>
					</g>
					<g>
						<polygon class="st5" points="363.87,123.9 359.45,124.99 366.64,135.23 394.68,116.33 						"/>
					</g>
				</g>
			</g>
		</g>
	</g>
</g>
<g id="DESIGNED_BY_FREEPIK" class="st0">
</g>
</svg>
