<?xml version="1.0" encoding="utf-8"?>
<!-- Generator: Adobe Illustrator 23.0.0, SVG Export Plug-In . SVG Version: 6.00 Build 0)  -->
<svg version="1.1" xmlns="http://www.w3.org/2000/svg" xmlns:xlink="http://www.w3.org/1999/xlink" x="0px" y="0px"
	 viewBox="0 0 500 500" style="enable-background:new 0 0 500 500;" xml:space="preserve">
<style type="text/css">
	.st0{fill:#EBEBEB;}
	.st1{fill:#E6E6E6;}
	.st2{fill:#F5F5F5;}
	.st3{fill:#FFFFFF;}
	.st4{fill:#F0F0F0;}
	.st5{fill:#FAFAFA;}
	.st6{fill:#E0E0E0;}
	.st7{display:none;}
	.st8{display:inline;}
	.st9{fill:#407BFF;}
	.st10{opacity:0.9;}
	.st11{fill:#FFC3BD;}
	.st12{opacity:0.2;}
	.st13{opacity:0.4;}
	.st14{fill:#263238;}
	.st15{fill:#ED847E;}
	.st16{opacity:0.3;}
	.st17{opacity:0.6;fill:#FFFFFF;}
	.st18{opacity:0.4;fill:#407BFF;}
</style>
<g id="Background_Complete">
	<g>
		<rect y="382.4" class="st0" width="500" height="0.25"/>
		<rect x="416.78" y="398.49" class="st0" width="33.12" height="0.25"/>
		<rect x="322.53" y="401.21" class="st0" width="8.69" height="0.25"/>
		<rect x="396.59" y="389.21" class="st0" width="19.19" height="0.25"/>
		<rect x="52.46" y="390.89" class="st0" width="43.19" height="0.25"/>
		<rect x="104.56" y="390.89" class="st0" width="6.33" height="0.25"/>
		<rect x="131.47" y="395.11" class="st0" width="93.68" height="0.25"/>
		<path class="st0" d="M237.01,337.8H43.92c-3.15,0-5.71-2.56-5.71-5.71V60.66c0-3.15,2.56-5.71,5.71-5.71h193.1
			c3.15,0,5.71,2.56,5.71,5.71v271.43C242.72,335.24,240.16,337.8,237.01,337.8z M43.92,55.2c-3.01,0-5.46,2.45-5.46,5.46v271.43
			c0,3.01,2.45,5.46,5.46,5.46h193.1c3.01,0,5.46-2.45,5.46-5.46V60.66c0-3.01-2.45-5.46-5.46-5.46H43.92z"/>
		<path class="st0" d="M453.31,337.8h-193.1c-3.15,0-5.71-2.56-5.71-5.71V60.66c0-3.15,2.56-5.71,5.71-5.71h193.1
			c3.15,0,5.71,2.56,5.71,5.71v271.43C459.02,335.24,456.46,337.8,453.31,337.8z M260.21,55.2c-3.01,0-5.46,2.45-5.46,5.46v271.43
			c0,3.01,2.45,5.46,5.46,5.46h193.1c3.01,0,5.46-2.45,5.46-5.46V60.66c0-3.01-2.45-5.46-5.46-5.46H260.21z"/>
	</g>
	<g>
		<g>
			
				<rect x="310.81" y="123.52" transform="matrix(-1.836970e-16 1 -1 -1.836970e-16 537.3257 -207.7521)" class="st1" width="123.46" height="82.54"/>
			
				<rect x="308.3" y="123.52" transform="matrix(-1.836970e-16 1 -1 -1.836970e-16 534.8212 -205.2476)" class="st2" width="123.46" height="82.54"/>
			<rect x="339.37" y="113.66" class="st3" width="61.32" height="102.25"/>
			
				<rect x="288.94" y="164.09" transform="matrix(-1.836970e-16 1 -1 -1.836970e-16 504.8563 -175.2825)" class="st1" width="102.25" height="1.39"/>
		</g>
		<g>
			<g>
				
					<rect x="214.82" y="269.51" transform="matrix(-1 2.857037e-05 -2.857037e-05 -1 464.6506 651.9061)" class="st1" width="35" height="112.89"/>
				<polygon class="st4" points="221.47,382.4 214.82,382.4 214.82,366.38 228.44,366.38 				"/>
				
					<rect x="401.85" y="269.51" transform="matrix(-1 2.857029e-05 -2.857029e-05 -1 838.7126 651.8936)" class="st1" width="35" height="112.89"/>
				
					<rect x="214.82" y="269.51" transform="matrix(-1 1.970619e-05 -1.970619e-05 -1 622.4791 649.5555)" class="st4" width="192.83" height="110.54"/>
				
					<rect x="265.84" y="230.37" transform="matrix(-3.542345e-05 -1 1 -3.542345e-05 -10.3873 567.4959)" class="st1" width="25.41" height="117.14"/>
				
					<rect x="359.33" y="258.48" transform="matrix(-3.542345e-05 -1 1 -3.542345e-05 83.1081 660.9844)" class="st1" width="25.41" height="60.92"/>
				<path class="st4" d="M366.01,279.31l12.05,0c5.24,0,10.24-1.25,13.84-3.46l0,0l-39.73,0l0,0
					C355.77,278.06,360.77,279.31,366.01,279.31z"/>
				<path class="st4" d="M243.79,279.31l68.27,0c5.24,0,10.24-1.25,13.84-3.46l0,0l-95.95,0l0,0
					C233.55,278.06,238.56,279.31,243.79,279.31z"/>
				
					<rect x="265.84" y="263.06" transform="matrix(-3.542345e-05 -1 1 -3.542345e-05 -43.0718 600.1837)" class="st1" width="25.41" height="117.14"/>
				
					<rect x="359.33" y="291.17" transform="matrix(-3.542345e-05 -1 1 -3.542345e-05 50.4236 693.6722)" class="st1" width="25.41" height="60.92"/>
				<path class="st4" d="M366.01,311.99l12.05,0c5.24,0,10.24-1.25,13.84-3.46v0l-39.73,0l0,0
					C355.77,310.74,360.77,311.99,366.01,311.99z"/>
				<path class="st4" d="M243.79,312l68.27,0c5.24,0,10.24-1.25,13.84-3.46l0,0l-95.95,0l0,0C233.55,310.75,238.56,312,243.79,312z"
					/>
				
					<rect x="265.84" y="295.74" transform="matrix(-3.542359e-05 -1 1 -3.542359e-05 -75.7562 632.8716)" class="st1" width="25.41" height="117.14"/>
				
					<rect x="359.33" y="323.85" transform="matrix(-3.542359e-05 -1 1 -3.542359e-05 17.7392 726.3602)" class="st1" width="25.41" height="60.92"/>
				<path class="st4" d="M366.01,344.68l12.05,0c5.24,0,10.24-1.25,13.84-3.46l0,0l-39.73,0l0,0
					C355.77,343.43,360.78,344.68,366.01,344.68z"/>
				<path class="st4" d="M243.8,344.68l68.27,0c5.24,0,10.24-1.25,13.84-3.46l0,0l-95.95,0v0
					C233.56,343.43,238.56,344.68,243.8,344.68z"/>
				<polygon class="st4" points="401.01,382.4 407.65,382.4 407.65,366.38 394.04,366.38 				"/>
			</g>
			<path class="st5" d="M419.23,249.42c0,0-1.01,11.47-39.94,11.47s-39.94-11.47-39.94-11.47L419.23,249.42z"/>
			<path class="st0" d="M419.23,258.04c0,0-1.02,11.47-39.94,11.47s-39.94-11.47-39.94-11.47L419.23,258.04z"/>
		</g>
		<g>
			<polygon class="st1" points="146.59,382.4 186.61,382.4 174.75,279.47 146.59,279.47 			"/>
			<polygon class="st6" points="79.05,382.4 168.05,382.4 177.44,261.93 88.44,261.93 			"/>
			<polygon class="st2" points="72.64,382.4 165.26,382.4 174.65,261.93 82.04,261.93 			"/>
			<polygon class="st3" points="156.51,372.9 164.42,271.42 90.79,271.42 82.88,372.9 			"/>
		</g>
		<g>
			<rect x="62.23" y="75.69" class="st0" width="226.79" height="165.29"/>
			<rect x="69.99" y="84.43" class="st5" width="211.27" height="147.8"/>
			<polygon class="st3" points="115.45,232.24 93.28,232.24 114.16,84.43 136.33,84.43 			"/>
			<polygon class="st3" points="170.24,232.24 148.06,232.24 168.94,84.43 191.12,84.43 			"/>
			<polygon class="st3" points="240.87,232.24 229.78,232.24 250.66,84.43 261.75,84.43 			"/>
			<polygon class="st3" points="189.74,232.24 178.65,232.24 199.53,84.43 210.62,84.43 			"/>
			<rect x="130.36" y="84.43" class="st0" width="10.45" height="147.8"/>
			
				<rect x="140.81" y="84.43" transform="matrix(-1 -1.224647e-16 1.224647e-16 -1 283.9529 316.6702)" class="st6" width="2.33" height="147.8"/>
			
				<rect x="289.02" y="75.69" transform="matrix(-1 -1.224647e-16 1.224647e-16 -1 579.7096 316.6702)" class="st6" width="1.67" height="165.29"/>
		</g>
	</g>
</g>
<g id="Background_Simple" class="st7">
	<g class="st8">
		<g>
			<path class="st9" d="M303.04,256.64c-53.59,4.65-89.84-59.72-93.64-107.56c-3.73-47.02,15.79-102.35-50.8-108.04
				c-49.84-4.25-96.84,47.94-100.01,97c-3.85,59.48,62.19,40.63,78.73,85.36c11.69,31.62-22.56,58.33-17.22,89.41
				c11.86,69.08,87.65,11.3,121.07,29.81c22.75,12.6,28.92,38.43,59.78,41.95c27.54,3.14,53.2-12.84,70.01-35.14
				C417.41,287.82,361.64,251.51,303.04,256.64z"/>
		</g>
		<g class="st10">
			<path class="st3" d="M303.04,256.64c-53.59,4.65-89.84-59.72-93.64-107.56c-3.73-47.02,15.79-102.35-50.8-108.04
				c-49.84-4.25-96.84,47.94-100.01,97c-3.85,59.48,62.19,40.63,78.73,85.36c11.69,31.62-22.56,58.33-17.22,89.41
				c11.86,69.08,87.65,11.3,121.07,29.81c22.75,12.6,28.92,38.43,59.78,41.95c27.54,3.14,53.2-12.84,70.01-35.14
				C417.41,287.82,361.64,251.51,303.04,256.64z"/>
		</g>
	</g>
</g>
<g id="Shadow_1_">
	<ellipse id="_x3C_Path_x3E__156_" class="st2" cx="250" cy="416.24" rx="193.89" ry="11.32"/>
</g>
<g id="Character_1_">
	<g>
		<g>
			<polygon class="st11" points="296.58,387.31 309.26,379.99 317,395.48 306.41,401.62 			"/>
			<polygon class="st12" points="296.59,387.31 309.27,379.99 313.6,388.67 302.09,395.33 			"/>
		</g>
		<g>
			<g>
				<path class="st9" d="M301.14,337.35c8.98-20.8,23.77-44.97,17.71-67.28l-40.36-6.38c0,0-8.35,49.86-6.69,70.31
					c1.72,21.26,26.82,59.01,26.82,59.01l14.45-8.48C313.07,384.52,306.79,352.26,301.14,337.35z"/>
			</g>
			<g class="st13">
				<path d="M301.14,337.35c8.98-20.8,23.77-44.97,17.71-67.28l-40.36-6.38c0,0-8.35,49.86-6.69,70.31
					c1.72,21.26,26.82,59.01,26.82,59.01l14.45-8.48C313.07,384.52,306.79,352.26,301.14,337.35z"/>
			</g>
		</g>
		<polygon class="st9" points="314.53,384.35 298.02,394.1 292.76,387.27 312.22,376.96 		"/>
		<path class="st12" d="M304.09,330.78c4.85-10.53,10.46-21.74,13.63-33.02C308.19,299.38,300.11,307.12,304.09,330.78z"/>
		<path class="st14" d="M316.58,391.81c-0.25-0.32-0.77-0.29-0.97,0.05c-2.08,3.57-8.08,6.99-10.39,8.22
			c-0.57,0.3-0.95,0.8-1.13,1.36c-1.13,3.48-5.61,8.68-5.61,8.68s0.25,1.16,0.82,2.32c0.48,0.98,1.74,1.28,2.58,0.59l18.42-14.96
			c0.67-0.54,0.71-1.54,0.09-2.13C319.35,394.94,317.81,393.38,316.58,391.81z"/>
		<g>
			<polygon class="st11" points="320.39,394.37 335.02,394.51 333.69,411.79 321.46,411.69 			"/>
			<path class="st14" d="M334.97,409.13c0.04-0.4-0.35-0.71-0.73-0.57c-3.99,1.46-10.71,0.34-13.24-0.16
				c-0.62-0.12-1.24,0.02-1.77,0.35c-3.24,1.99-8.98,3.21-8.98,3.21s-0.59,0.98-0.99,2.19c-0.36,1.09,0.45,2.22,1.6,2.21l22.56-0.01
				c0.81,0,1.46-0.67,1.42-1.48C334.79,413.43,334.76,411.18,334.97,409.13z"/>
			<polygon class="st12" points="320.39,394.38 335.03,394.52 334.28,404.19 320.99,404.08 			"/>
		</g>
		<g>
			<path class="st9" d="M344.29,336.16c4.56-21.73,12.77-49.98,6.99-61.2l-47.25-7.32c0,0,5.88,44.96,7.43,65.9
				c1.61,21.78,7.98,66.76,7.98,66.76l15.84,0.04C335.27,400.35,346.3,362.08,344.29,336.16z"/>
			<path class="st13" d="M344.29,336.16c4.56-21.73,12.77-49.98,6.99-61.2l-47.25-7.32c0,0,5.88,44.96,7.43,65.9
				c1.61,21.78,7.98,66.76,7.98,66.76l15.84,0.04C335.27,400.35,346.3,362.08,344.29,336.16z"/>
		</g>
		<polygon class="st9" points="337,400.95 317.95,400.95 317.65,393.01 338.64,393.35 		"/>
		<g>
			<path class="st11" d="M316.5,199.01l-1.21,0.97l-1.12,0.88c-0.75,0.57-1.5,1.11-2.25,1.66c-1.5,1.09-3.05,2.11-4.61,3.12
				c-3.13,1.99-6.35,3.88-9.75,5.56c-3.38,1.71-6.92,3.25-10.69,4.52c-3.76,1.3-7.8,2.29-12.25,2.72l-0.82,0.08
				c-2.15,0.21-4.2-0.45-5.78-1.66c-3.31-2.54-5.34-5.66-6.68-8.5c-0.69-1.43-1.21-2.86-1.6-4.26c-0.4-1.4-0.74-2.76-0.96-4.11
				c-0.22-1.35-0.37-2.68-0.48-3.99c-0.1-1.31-0.11-2.61-0.11-3.89c0.01-1.28,0.1-2.56,0.21-3.83l0.23-1.9l0.33-2
				c0.47-2.83,3.15-4.75,5.99-4.27c1.81,0.3,3.25,1.51,3.92,3.08l0.41,0.98c0.16,0.37,0.34,0.94,0.51,1.41l0.52,1.5
				c0.34,1,0.72,1.98,1.08,2.95c0.74,1.93,1.53,3.78,2.39,5.44c0.83,1.67,1.79,3.14,2.69,4.21c0.89,1.11,1.81,1.61,2.23,1.7
				l-6.6-1.58c2.38-0.53,4.99-1.49,7.66-2.65c1.33-0.58,2.67-1.25,4.01-1.95c1.35-0.68,2.7-1.43,4.04-2.2
				c2.68-1.56,5.38-3.22,8.02-4.98c1.33-0.87,2.64-1.78,3.95-2.68l1.94-1.36l1.79-1.28l0.41-0.29c4.68-3.34,11.19-2.25,14.53,2.44
				C321.68,189.36,320.76,195.58,316.5,199.01z"/>
		</g>
		<path class="st11" d="M268.85,183.94l-5.17,3.37c-6.33,1.39-6.71-7.06-6.71-7.06l-1.82-3.99c-0.62-1.35-0.02-3.04,1.41-3.99
			l3.59-2.38c1.64-1.09,3.77-0.82,4.72,0.59l2.14,3.17c0.62,0.92,1.01,1.99,1.12,3.1L268.85,183.94z"/>
		<g>
			<path class="st14" d="M316.16,178.01c-9.9-0.59-30.25,12.18-30.25,12.18c-2.34,7.46,1.74,21.61,7.7,25.1
				c0,0,15.15-6.51,22.28-12.83C324.51,194.81,336.19,179.2,316.16,178.01z"/>
		</g>
		<path class="st14" d="M317.08,178.02c12.12,0.6,28.03,3.22,40.13,6.87c7.55,2.28,12.25,7.92,8.87,23.58
			c-6.86,31.77-6.3,57.72-12.16,68.62c0,0-68.69,4.24-77.87-11.6c1.86-39.22,20.66-69.11,29.05-81.47
			C307.77,180.07,312.31,177.79,317.08,178.02z"/>
		<path class="st11" d="M320.97,182.37c1.77-1.27,3.24-0.14,4.34-2.3c0.58-1.58,0.61-3.33-0.04-5.36l19.84-7.04
			c-1.4,6.68-2.5,11.96,0.07,15.09c0.09,5.16-11.82,9.86-21.88,7.95C314.44,189.04,318.42,184.2,320.97,182.37z"/>
		<path class="st12" d="M325.45,175.33l15.02-1.38c-4.54,5.18-11.61,7.31-14.93,5.37C325.84,178.1,325.83,176.79,325.45,175.33z"/>
		<path class="st14" d="M324,156.53c-0.79-7.69,6.7-17.42,12.96-14.06C343.22,145.82,324,156.53,324,156.53z"/>
		<path class="st11" d="M350.41,160.92c-3.97,8.76-6.85,14.62-13.5,16.43c-13.21,3.59-17.56-3.67-16.28-13.46
			c1.15-8.82,7.45-21.66,17.57-21.8C348.17,141.94,354.37,152.16,350.41,160.92z"/>
		<path class="st14" d="M348.12,167.93c-4.53-0.66-7.84-8.83-3.1-13.11c4.74-4.28,3.1-8.39-0.34-9.6c-3.44-1.22-9.69-0.34-11.11-3.4
			c-1.43-3.06,8.09-5.28,13.63-1.76s5.24,1.38,5.24,1.38s1.15,1.8-1.04,2.18c4.35,2.89,9.17,9.85,4.69,12.71
			C361.74,159.52,352.98,167.08,348.12,167.93z"/>
		<path class="st14" d="M354.69,155.85c3.02,0.99,4.31-1.3,4.31-1.3S359.94,158.27,354.69,155.85z"/>
		<path class="st14" d="M332.49,165.13c0.4-0.17,0.81-0.39,1.22-0.66c0.11-0.07,0.13-0.22,0.05-0.33c-0.08-0.11-0.24-0.14-0.35-0.06
			c-3,1.98-5.98,0.85-6.01,0.84c-0.13-0.05-0.27,0.01-0.32,0.13c-0.05,0.12,0.02,0.26,0.15,0.31
			C327.35,165.4,329.75,166.31,332.49,165.13z"/>
		<path class="st12" d="M337.82,158.23c0,0,1.95-0.43,3.26,0.61C339.24,158.86,337.82,158.23,337.82,158.23z"/>
		<path class="st12" d="M337.73,159.02c0,0,1.83-0.02,2.72,1.27C338.83,159.93,337.73,159.02,337.73,159.02z"/>
		<path class="st11" d="M349.86,170.4c-1.91,1.74-4.45,2.43-6.57,2.29c-3.2-0.22-2.78-2.73-1.02-5.2c1.58-2.22,4.18-5.4,6.97-3.96
			C351.97,164.93,352.04,168.41,349.86,170.4z"/>
		<path class="st14" d="M335.97,157.95c-0.28,0.73-0.89,1.17-1.37,0.99c-0.48-0.19-0.64-0.93-0.36-1.66
			c0.28-0.73,0.89-1.17,1.37-0.99C336.08,156.47,336.24,157.22,335.97,157.95z"/>
		<path class="st14" d="M327.51,154.66c-0.28,0.73-0.89,1.17-1.37,0.99c-0.48-0.19-0.64-0.93-0.36-1.66
			c0.28-0.73,0.89-1.17,1.37-0.99C327.63,153.18,327.79,153.93,327.51,154.66z"/>
		<path class="st15" d="M330.15,155.85l-2.13,6.4c0,0-2.21,0.77-4.24-1.41C325.9,157.55,330.15,155.85,330.15,155.85z"/>
		<path class="st14" d="M339.85,153.69c0.07,0.02,0.15,0.03,0.23,0.02c0.25-0.05,0.41-0.29,0.36-0.54
			c-0.49-2.51-2.44-3.34-2.52-3.37c-0.23-0.1-0.5,0.02-0.6,0.25c-0.09,0.23,0.02,0.5,0.25,0.6l0,0c0.06,0.03,1.58,0.69,1.97,2.69
			C339.57,153.51,339.7,153.64,339.85,153.69z"/>
		<path class="st14" d="M324.34,151.24c0.14,0.04,0.3,0.01,0.42-0.1c1.51-1.34,3.11-0.94,3.18-0.92c0.24,0.07,0.49-0.08,0.56-0.32
			c0.06-0.24-0.08-0.5-0.32-0.56c-0.09-0.02-2.14-0.57-4.03,1.12c-0.19,0.17-0.2,0.46-0.04,0.65
			C324.18,151.17,324.26,151.22,324.34,151.24z"/>
		<g>
			<g>
				<path class="st9" d="M218.44,208.99l-4.34,11.85c-0.79,2.15-2.54,3.62-4.71,3.95l-57.66,8.74c-3.72,0.56-5.92,4.38-4.92,8.53
					L167,325.2c1.01,4.15,4.84,7.05,8.56,6.49l137.27-20.79c3.72-0.56,5.92-4.38,4.92-8.53l-24.33-100.19
					c-1.01-4.15-4.84-7.05-8.56-6.49l-61.71,9.35C220.98,205.37,219.23,206.84,218.44,208.99z"/>
				<path class="st16" d="M218.44,208.99l-4.34,11.85c-0.79,2.15-2.54,3.62-4.71,3.95l-57.66,8.74c-3.72,0.56-5.92,4.38-4.92,8.53
					L167,325.2c1.01,4.15,4.84,7.05,8.56,6.49l137.27-20.79c3.72-0.56,5.92-4.38,4.92-8.53l-24.33-100.19
					c-1.01-4.15-4.84-7.05-8.56-6.49l-61.71,9.35C220.98,205.37,219.23,206.84,218.44,208.99z"/>
			</g>
			<path class="st9" d="M188.85,87.41c1.37,0,2.72,0.07,4.05,0.21c8.85-12.22,23.22-20.18,39.46-20.18
				c20.63,0,38.25,12.84,45.34,30.95c15.78,2.69,27.79,16.42,27.79,32.97c0,18.48-14.98,33.45-33.45,33.45h-83.18
				c-21.37,0-38.7-17.33-38.7-38.7C150.15,104.74,167.48,87.41,188.85,87.41z"/>
			<g>
				<polygon class="st9" points="192.44,151.29 192.44,247.77 263.2,247.77 263.2,172.29 242.2,151.29 				"/>
				<polygon class="st17" points="192.44,151.29 192.44,247.77 263.2,247.77 263.2,172.29 242.2,151.29 				"/>
				<polygon class="st18" points="242.2,172.29 242.2,151.29 263.2,172.29 				"/>
			</g>
			
				<rect x="189.75" y="331.71" transform="matrix(0.9888 -0.1493 0.1493 0.9888 -47.4579 32.443)" class="st9" width="5.07" height="1.01"/>
			
				<rect x="200.31" y="329.15" transform="matrix(0.9888 -0.1494 0.1494 0.9888 -46.9114 34.9563)" class="st9" width="17.71" height="1.01"/>
			<path class="st9" d="M243.68,218.47l-6.53,10.9c-1.19,1.98-3.18,3.35-5.34,3.68l-57.66,8.74c-3.72,0.56-6.6,4.09-6.44,7.87
				l3.35,75.84c0.17,3.78,3.32,6.39,7.04,5.83l137.27-20.79c3.72-0.56,6.6-4.09,6.44-7.87l-4.04-91.38
				c-0.17-3.78-3.32-6.39-7.04-5.83l-61.71,9.35C246.85,215.12,244.86,216.49,243.68,218.47z"/>
			<path class="st3" d="M245.69,137.29c-0.32,0-0.64-0.12-0.88-0.36c-0.49-0.48-0.49-1.27,0-1.76c9.37-9.37,9.37-24.61,0-33.98
				c-4.54-4.54-10.57-7.04-16.99-7.04c-6.42,0-12.45,2.5-16.99,7.04c-4.54,4.54-7.04,10.57-7.04,16.99c0,6.42,2.5,12.45,7.04,16.99
				c0.49,0.48,0.49,1.27,0,1.76c-0.48,0.48-1.27,0.48-1.76,0c-5.01-5.01-7.76-11.66-7.76-18.75c0-7.08,2.76-13.74,7.76-18.74
				c5.01-5.01,11.66-7.76,18.74-7.76c7.08,0,13.74,2.76,18.74,7.76c10.34,10.34,10.34,27.15,0,37.49
				C246.32,137.17,246,137.29,245.69,137.29z"/>
			<path class="st3" d="M238.45,144.72v-27.67c0-2.49-2.02-4.51-4.51-4.51H221.7c-2.49,0-4.51,2.02-4.51,4.51v27.67h-4.6
				l15.24,13.12l15.24-13.12H238.45z"/>
		</g>
		<g>
			<path class="st11" d="M361.8,213.47l-0.61,1.37l-0.57,1.25c-0.39,0.83-0.8,1.63-1.2,2.43c-0.81,1.61-1.69,3.17-2.57,4.74
				c-1.8,3.11-3.73,6.17-5.89,9.13c-1.08,1.48-2.18,2.96-3.36,4.41c-1.2,1.44-2.43,2.86-3.75,4.26c-2.62,2.8-5.59,5.47-9.09,7.88
				l-0.69,0.47c-0.35,0.24-0.74,0.44-1.12,0.59c-4.16,1.59-7.62,1.87-10.94,2.06c-3.3,0.15-6.41-0.07-9.45-0.38
				c-3.03-0.36-5.99-0.85-8.9-1.5c-2.93-0.67-5.71-1.4-8.65-2.43c-2.74-0.96-4.18-3.97-3.21-6.71c0.71-2.01,2.51-3.32,4.51-3.49
				l0.22-0.02l8.11-0.69c2.7-0.24,5.36-0.5,7.94-0.85c1.29-0.17,2.56-0.34,3.79-0.55c1.23-0.22,2.43-0.47,3.57-0.72
				c2.24-0.51,4.36-1.27,5.37-1.92l-1.81,1.06c1.82-1.62,3.62-3.67,5.38-5.89c0.88-1.11,1.73-2.3,2.56-3.5
				c0.85-1.2,1.67-2.45,2.48-3.71c1.59-2.55,3.17-5.17,4.65-7.87c0.76-1.34,1.47-2.71,2.2-4.06l2.03-3.92l0.24-0.47
				c2.65-5.11,8.93-7.1,14.04-4.46C361.97,202.55,363.99,208.48,361.8,213.47z"/>
			<g>
				<path class="st14" d="M364.98,195.79c4.81,17.28-7.4,34.46-7.4,34.46c-6.48,1.85-23.52-4.79-27.14-11.15
					c0,0,5.94-16.34,13.01-25.02C349.99,186.03,362.17,185.66,364.98,195.79z"/>
			</g>
		</g>
		<path class="st11" d="M298.31,237.96l0.95,6.1c-1.33,6.34-9.19,3.22-9.19,3.22l-4.39,0.02c-1.49,0.01-2.78-1.23-3.06-2.92
			l-0.7-4.26c-0.32-1.94,0.8-3.77,2.48-4.06l3.77-0.65c1.1-0.19,2.22-0.1,3.28,0.25L298.31,237.96z"/>
	</g>
</g>
</svg>
