<?xml version="1.0" encoding="utf-8"?>
<!-- Generator: Adobe Illustrator 23.0.0, SVG Export Plug-In . SVG Version: 6.00 Build 0)  -->
<svg version="1.1" id="Layer_1" xmlns="http://www.w3.org/2000/svg" xmlns:xlink="http://www.w3.org/1999/xlink" x="0px" y="0px"
	 viewBox="0 0 16 16" style="enable-background:new 0 0 16 16;" xml:space="preserve">
<style type="text/css">
	.st0{fill:#231F20;}
	.st1{fill:#D72519;}
	.st2{fill:#93968F;}
</style>
<g>
	<path class="st0" d="M11.16,4.81c-0.12,0-0.22-0.1-0.22-0.23c-0.06,0.51-0.26,1.08-0.58,1.62c-0.09,0.15-0.19,0.29-0.29,0.43
		c0.14,0.23,0.24,0.51,0.3,0.82c0.13-0.19,0.26-0.4,0.38-0.61c0.41-0.76,0.62-1.55,0.65-2.25C11.38,4.71,11.28,4.81,11.16,4.81z"/>
	<path class="st0" d="M7.89,9.05C7.9,9.08,7.9,9.11,7.9,9.14C7.58,9.17,7.27,9.12,7,8.96C6.81,8.86,6.65,8.71,6.51,8.54
		C6.53,8.5,6.55,8.46,6.57,8.42C7.27,8.41,7.82,8.65,7.89,9.05z"/>
	<path class="st0" d="M9.98,7.93C9.42,8.56,8.77,8.98,8.15,9.11c0-0.07-0.01-0.13-0.02-0.2C8.01,8.41,7.5,8.07,6.83,7.97
		c0.14-0.22,0.3-0.42,0.46-0.59c0.08,0.14,0.19,0.26,0.33,0.34c0.57,0.35,1.44,0.02,2.16-0.75C9.93,7.22,9.99,7.55,9.98,7.93z"/>
	<path class="st0" d="M10.06,6.63C9.97,6.75,9.88,6.87,9.78,6.97C9.7,6.83,9.59,6.71,9.45,6.63C8.88,6.27,8.02,6.6,7.29,7.38
		C7.13,7.55,6.97,7.75,6.83,7.97c0.66,0.1,1.17,0.44,1.29,0.94c0.02,0.07,0.02,0.13,0.02,0.2c0,0.12-0.02,0.23-0.05,0.34
		c0,0-0.01,0.02-0.01,0.04C8.07,9.54,8.02,9.56,7.97,9.56c-0.08,0-0.13-0.06-0.13-0.14c0-0.02,0.01-0.05,0.02-0.07
		c0.01-0.02,0.02-0.04,0.03-0.07C7.89,9.24,7.9,9.19,7.9,9.14c0-0.03,0-0.07-0.01-0.1C7.82,8.65,7.27,8.41,6.57,8.42
		C6.55,8.46,6.53,8.5,6.51,8.53c-0.29,0.6-0.42,1.21-0.39,1.72c0.01,0.19,0.05,0.37,0.1,0.52c0.06,0.16,0.14,0.3,0.25,0.41
		c0,0,0,0,0,0c0.02,0.02,0.04,0.04,0.06,0.06c0,0,0,0,0,0c0.12,0.12,0.19,0.29,0.19,0.47c0,0.38-0.3,0.68-0.67,0.68
		c-0.19,0-0.35-0.08-0.47-0.2c0,0,0,0,0-0.01c-0.02-0.02-0.03-0.04-0.05-0.06c-0.02-0.03-0.04-0.06-0.06-0.09
		c-0.22-0.34-0.35-0.79-0.37-1.28c-0.01-0.2,0-0.4,0.02-0.61c0.05-0.5,0.2-1.02,0.43-1.55c-0.58,0.21-0.98,0.57-1,0.92
		c0,0,0,0.01,0,0.03c-0.01,0.16-0.14,0.3-0.31,0.3c-0.16,0-0.3-0.12-0.3-0.29c0-0.05,0.01-0.11,0.03-0.16
		c0.14-0.6,0.83-1.17,1.75-1.39C5.78,8.01,5.83,8,5.88,7.99c0.08-0.14,0.16-0.27,0.25-0.39C6.43,7.18,6.75,6.83,7.1,6.56
		C7.91,5.92,8.81,5.7,9.5,6.08C9.73,6.21,9.92,6.4,10.06,6.63z"/>
	<path class="st0" d="M7.9,9.14C7.58,9.17,7.27,9.12,7,8.96C6.81,8.86,6.65,8.71,6.51,8.54C6.53,8.5,6.55,8.46,6.57,8.42
		c0.7-0.01,1.25,0.23,1.32,0.62C7.9,9.08,7.9,9.11,7.9,9.14z"/>
	<path class="st0" d="M7.9,9.14C7.58,9.17,7.27,9.12,7,8.96C6.81,8.86,6.65,8.71,6.51,8.54C6.53,8.5,6.55,8.46,6.57,8.42
		c0.7-0.01,1.25,0.23,1.32,0.62C7.9,9.08,7.9,9.11,7.9,9.14z"/>
	<path class="st1" d="M6.51,8.54C6.53,8.5,6.55,8.46,6.57,8.42c0.7-0.01,1.25,0.23,1.32,0.62C7.9,9.08,7.9,9.11,7.9,9.14
		C7.58,9.17,7.27,9.12,7,8.96C6.81,8.86,6.65,8.71,6.51,8.54z"/>
	<path class="st1" d="M10.06,6.63C9.97,6.75,9.88,6.87,9.78,6.97C9.06,7.75,8.19,8.08,7.62,7.72c-0.13-0.08-0.24-0.2-0.33-0.34
		C7.13,7.55,6.97,7.75,6.83,7.97c0.66,0.1,1.17,0.44,1.29,0.94c0.02,0.07,0.02,0.13,0.02,0.2c0.61-0.13,1.26-0.55,1.83-1.18
		C9.96,8.5,9.76,9.16,9.37,9.8c-0.77,1.3-2,1.97-2.73,1.52c-0.03-0.02-0.07-0.05-0.1-0.07c0.12,0.12,0.19,0.29,0.19,0.47
		c0,0.38-0.3,0.68-0.67,0.68c-0.19,0-0.35-0.08-0.47-0.2c0.12,0.15,0.26,0.27,0.42,0.36c1.1,0.62,2.78-0.33,3.74-2.12
		c0.56-1.04,0.75-2.13,0.6-2.99C10.3,7.14,10.2,6.86,10.06,6.63z"/>
	<path class="st1" d="M10.47,2.48C9.37,1.87,7.7,2.82,6.74,4.61c-0.56,1.04-0.75,2.13-0.6,2.99C6.43,7.19,6.75,6.84,7.1,6.56
		c-0.01-0.6,0.19-1.32,0.6-2.01c0.77-1.3,1.99-1.98,2.73-1.52c0.42,0.26,0.59,0.82,0.51,1.5c0,0.02,0,0.03,0,0.05
		c0,0.13,0.1,0.23,0.22,0.23c0.12,0,0.22-0.1,0.22-0.22c0,0,0,0,0,0v0C11.41,3.63,11.11,2.84,10.47,2.48z"/>
	<path class="st2" d="M15.05,2.34C13.12-0.16,8.4,0.34,4.51,3.47C0.62,6.6-0.98,11.16,0.95,13.66s6.65,1.99,10.54-1.13
		C15.39,9.4,16.98,4.84,15.05,2.34z M11.45,11.33c-3.39,2.44-7.35,2.68-8.87,0.54c-1.51-2.14,0-5.84,3.39-8.28
		c3.38-2.44,7.35-2.68,8.86-0.54C16.35,5.19,14.84,8.89,11.45,11.33z"/>
</g>
</svg>
